<svg width="1512" height="136" viewBox="0 0 1512 136" fill="none" xmlns="http://www.w3.org/2000/svg">
<path d="M1487 82.9214C1490.46 82.9214 1493.28 79.8018 1493.28 75.9744C1493.28 72.147 1490.46 69.0274 1487 69.0274C1483.54 69.0274 1480.72 72.147 1480.72 75.9744C1480.72 79.8018 1483.54 82.9214 1487 82.9214ZM1487 71.6227C1489.15 71.6227 1490.91 73.5626 1490.91 75.9482C1490.91 78.3338 1489.15 80.2737 1487 80.2737C1484.84 80.2737 1483.09 78.3338 1483.09 75.9482C1483.09 73.5626 1484.84 71.6227 1487 71.6227Z" fill="#78191C"/>
<path d="M1428.4 82.9214C1431.86 82.9214 1434.68 79.8018 1434.68 75.9744C1434.68 72.147 1431.86 69.0274 1428.4 69.0274C1424.94 69.0274 1422.12 72.147 1422.12 75.9744C1422.12 79.8018 1424.94 82.9214 1428.4 82.9214ZM1428.4 71.6227C1430.56 71.6227 1432.31 73.5626 1432.31 75.9482C1432.31 78.3338 1430.56 80.2737 1428.4 80.2737C1426.25 80.2737 1424.49 78.3338 1424.49 75.9482C1424.49 73.5626 1426.25 71.6227 1428.4 71.6227Z" fill="#78191C"/>
<path d="M1443.97 82.9214H1451.69C1453.04 82.9214 1454.13 81.7155 1454.13 80.2213V71.6751C1454.13 70.1808 1453.04 68.975 1451.69 68.975H1443.97C1442.62 68.975 1441.53 70.1808 1441.53 71.6751V80.2213C1441.53 81.7155 1442.62 82.9214 1443.97 82.9214ZM1451.69 71.6227L1451.77 80.2213L1443.99 80.2999C1443.99 80.2999 1443.92 80.2737 1443.92 80.2213V71.6751L1451.69 71.5965V71.6227Z" fill="#78191C"/>
<path d="M1424.54 82.9214H1432.27C1433.62 82.9214 1434.71 81.7155 1434.71 80.2213V71.6751C1434.71 70.1808 1433.62 68.975 1432.27 68.975H1424.54C1423.19 68.975 1422.1 70.1808 1422.1 71.6751V80.2213C1422.1 81.7155 1423.19 82.9214 1424.54 82.9214ZM1432.27 71.6227L1432.34 80.2213L1424.56 80.2999C1424.56 80.2999 1424.49 80.2737 1424.49 80.2213V71.6751L1432.27 71.5965V71.6227Z" fill="#78191C"/>
<path d="M1369.1 61.3463C1372.56 61.3463 1375.38 58.2267 1375.38 54.3731C1375.38 50.5195 1372.56 47.4261 1369.1 47.4261C1365.64 47.4261 1362.82 50.5457 1362.82 54.3731C1362.82 58.2005 1365.64 61.3463 1369.1 61.3463ZM1369.1 50.0476C1371.25 50.0476 1373.01 51.9875 1373.01 54.3731C1373.01 56.7587 1371.25 58.7248 1369.1 58.7248C1366.94 58.7248 1365.19 56.7849 1365.19 54.3731C1365.19 51.9613 1366.94 50.0476 1369.1 50.0476Z" fill="#F19106"/>
<path d="M1365.23 61.3463H1372.96C1374.31 61.3463 1375.4 60.1404 1375.4 58.6462V50.1001C1375.4 48.6058 1374.31 47.3999 1372.96 47.3999H1365.23C1363.88 47.3999 1362.79 48.6058 1362.79 50.1001V58.6462C1362.79 60.1404 1363.88 61.3463 1365.23 61.3463ZM1372.96 50.0476L1373.03 58.6462L1365.26 58.7248C1365.26 58.7248 1365.19 58.6986 1365.19 58.6462V50.1001L1372.96 50.0214V50.0476Z" fill="#F19106"/>
<path d="M1483.14 61.3463H1490.84C1492.19 61.3463 1493.28 60.1404 1493.28 58.6462V50.1001C1493.28 48.6058 1492.19 47.3999 1490.84 47.3999H1483.11C1481.76 47.3999 1480.67 48.6058 1480.67 50.1001V58.6462C1480.67 60.1404 1481.76 61.3463 1483.11 61.3463H1483.14ZM1490.86 50.0476L1490.93 58.6462L1483.16 58.7248C1483.16 58.7248 1483.09 58.6986 1483.09 58.6462V50.1001L1490.86 50.0214V50.0476Z" fill="#78191C"/>
<path d="M1428.4 61.3463C1431.86 61.3463 1434.68 58.2267 1434.68 54.3731C1434.68 50.5195 1431.86 47.4261 1428.4 47.4261C1424.94 47.4261 1422.12 50.5457 1422.12 54.3731C1422.12 58.2005 1424.94 61.3463 1428.4 61.3463ZM1428.4 50.0476C1430.56 50.0476 1432.31 51.9875 1432.31 54.3731C1432.31 56.7587 1430.56 58.7248 1428.4 58.7248C1426.25 58.7248 1424.49 56.7849 1424.49 54.3731C1424.49 51.9613 1426.25 50.0476 1428.4 50.0476Z" fill="#78191C"/>
<path d="M1446.65 48.7369H1449.02V60.0356H1446.65V48.7369Z" fill="#78191C"/>
<path d="M1442.71 53.0623H1452.93V55.6839H1442.71V53.0623Z" fill="#78191C"/>
<path d="M1466.36 70.3119H1468.73V81.6106H1466.36V70.3119Z" fill="#78191C"/>
<path d="M1462.45 74.6636H1472.66V77.2852H1462.45V74.6636Z" fill="#78191C"/>
<path d="M1404.42 82.9214H1412.08C1413.43 82.9214 1414.54 81.6893 1414.54 80.195V71.7276C1414.54 70.2333 1413.43 69.0012 1412.08 69.0012H1404.42C1403.07 69.0012 1401.96 70.2333 1401.96 71.7276V80.195C1401.96 81.6893 1403.07 82.9214 1404.42 82.9214ZM1412.08 71.6227L1412.17 80.195L1404.42 80.2999C1404.42 80.2999 1404.33 80.2474 1404.33 80.195V71.7276L1412.08 71.6227Z" fill="#78191C"/>
<path d="M1365.23 82.9214H1372.96C1374.31 82.9214 1375.4 81.7155 1375.4 80.2213V71.6751C1375.4 70.1808 1374.31 68.975 1372.96 68.975H1365.23C1363.88 68.975 1362.79 70.1808 1362.79 71.6751V80.2213C1362.79 81.7155 1363.88 82.9214 1365.23 82.9214ZM1372.96 71.6227L1373.03 80.2213L1365.26 80.2999C1365.26 80.2999 1365.19 80.2737 1365.19 80.2213V71.6751L1372.96 71.5965V71.6227Z" fill="#F19106"/>
<path d="M1349.64 61.3463C1353.1 61.3463 1355.92 58.2267 1355.92 54.3731C1355.92 50.5195 1353.1 47.4261 1349.64 47.4261C1346.18 47.4261 1343.36 50.5457 1343.36 54.3731C1343.36 58.2005 1346.18 61.3463 1349.64 61.3463ZM1349.64 50.0476C1351.8 50.0476 1353.55 51.9875 1353.55 54.3731C1353.55 56.7587 1351.8 58.7248 1349.64 58.7248C1347.49 58.7248 1345.73 56.7849 1345.73 54.3731C1345.73 51.9613 1347.49 50.0476 1349.64 50.0476Z" fill="#F19106"/>
<path d="M1407.05 48.7369H1409.42V60.0356H1407.05V48.7369Z" fill="#78191C"/>
<path d="M1403.14 53.0623H1413.36V55.6839H1403.14V53.0623Z" fill="#78191C"/>
<path d="M1387.63 70.3119H1389.99V81.6106H1387.63V70.3119Z" fill="#F19106"/>
<path d="M1383.72 74.6636H1393.93V77.2852H1383.72V74.6636Z" fill="#F19106"/>
<path d="M1348.46 70.3119H1350.83V81.6106H1348.46V70.3119Z" fill="#F19106"/>
<path d="M1344.55 74.6636H1354.76V77.2852H1344.55V74.6636Z" fill="#F19106"/>
<path d="M1330.71 82.9214C1334.17 82.9214 1336.99 79.8018 1336.99 75.9744C1336.99 72.147 1334.17 69.0274 1330.71 69.0274C1327.25 69.0274 1324.43 72.147 1324.43 75.9744C1324.43 79.8018 1327.25 82.9214 1330.71 82.9214ZM1330.71 71.6227C1332.87 71.6227 1334.62 73.5626 1334.62 75.9482C1334.62 78.3338 1332.87 80.2737 1330.71 80.2737C1328.56 80.2737 1326.8 78.3338 1326.8 75.9482C1326.8 73.5626 1328.56 71.6227 1330.71 71.6227Z" fill="#F19106"/>
<path d="M1311.28 61.3463C1314.74 61.3463 1317.56 58.2267 1317.56 54.3731C1317.56 50.5195 1314.74 47.4261 1311.28 47.4261C1307.82 47.4261 1305 50.5457 1305 54.3731C1305 58.2005 1307.82 61.3463 1311.28 61.3463ZM1311.28 50.0476C1313.44 50.0476 1315.19 51.9875 1315.19 54.3731C1315.19 56.7587 1313.44 58.7248 1311.28 58.7248C1309.13 58.7248 1307.37 56.7849 1307.37 54.3731C1307.37 51.9613 1309.13 50.0476 1311.28 50.0476Z" fill="#F19106"/>
<path d="M1272.12 82.9214C1275.58 82.9214 1278.4 79.8018 1278.4 75.9744C1278.4 72.147 1275.58 69.0274 1272.12 69.0274C1268.66 69.0274 1265.84 72.147 1265.84 75.9744C1265.84 79.8018 1268.66 82.9214 1272.12 82.9214ZM1272.12 71.6227C1274.27 71.6227 1276.03 73.5626 1276.03 75.9482C1276.03 78.3338 1274.27 80.2737 1272.12 80.2737C1269.96 80.2737 1268.21 78.3338 1268.21 75.9482C1268.21 73.5626 1269.96 71.6227 1272.12 71.6227Z" fill="#F19106"/>
<path d="M1287.68 82.9214H1295.41C1296.76 82.9214 1297.85 81.7155 1297.85 80.2213V71.6751C1297.85 70.1808 1296.76 68.975 1295.41 68.975H1287.68C1286.33 68.975 1285.24 70.1808 1285.24 71.6751V80.2213C1285.24 81.7155 1286.33 82.9214 1287.68 82.9214ZM1295.41 71.6227L1295.48 80.2213L1287.71 80.2999C1287.71 80.2999 1287.64 80.2737 1287.64 80.2213V71.6751L1295.41 71.5965V71.6227Z" fill="#F19106"/>
<path d="M1268.25 82.9214H1275.98C1277.33 82.9214 1278.42 81.7155 1278.42 80.2213V71.6751C1278.42 70.1808 1277.33 68.975 1275.98 68.975H1268.25C1266.9 68.975 1265.81 70.1808 1265.81 71.6751V80.2213C1265.81 81.7155 1266.9 82.9214 1268.25 82.9214ZM1275.98 71.6227L1276.05 80.2213L1268.28 80.2999C1268.28 80.2999 1268.21 80.2737 1268.21 80.2213V71.6751L1275.98 71.5965V71.6227Z" fill="#F19106"/>
<path d="M1212.81 61.3463C1216.27 61.3463 1219.09 58.2267 1219.09 54.3731C1219.09 50.5195 1216.27 47.4261 1212.81 47.4261C1209.35 47.4261 1206.53 50.5457 1206.53 54.3731C1206.53 58.2005 1209.35 61.3463 1212.81 61.3463ZM1212.81 50.0476C1214.97 50.0476 1216.72 51.9875 1216.72 54.3731C1216.72 56.7587 1214.97 58.7248 1212.81 58.7248C1210.65 58.7248 1208.9 56.7849 1208.9 54.3731C1208.9 51.9613 1210.65 50.0476 1212.81 50.0476Z" fill="#F19106"/>
<path d="M1208.95 61.3463H1216.67C1218.02 61.3463 1219.11 60.1404 1219.11 58.6462V50.1001C1219.11 48.6058 1218.02 47.3999 1216.67 47.3999H1208.95C1207.6 47.3999 1206.51 48.6058 1206.51 50.1001V58.6462C1206.51 60.1404 1207.6 61.3463 1208.95 61.3463ZM1216.67 50.0476L1216.74 58.6462L1208.97 58.7248C1208.97 58.7248 1208.9 58.6986 1208.9 58.6462V50.1001L1216.67 50.0214V50.0476Z" fill="#F19106"/>
<path d="M1326.85 61.3463H1334.57C1335.92 61.3463 1337.01 60.1404 1337.01 58.6462V50.1001C1337.01 48.6058 1335.92 47.3999 1334.57 47.3999H1326.85C1325.5 47.3999 1324.41 48.6058 1324.41 50.1001V58.6462C1324.41 60.1404 1325.5 61.3463 1326.85 61.3463ZM1334.57 50.0476L1334.65 58.6462L1326.87 58.7248C1326.87 58.7248 1326.8 58.6986 1326.8 58.6462V50.1001L1334.57 50.0214V50.0476Z" fill="#F19106"/>
<path d="M1272.12 61.3463C1275.58 61.3463 1278.4 58.2267 1278.4 54.3731C1278.4 50.5195 1275.58 47.4261 1272.12 47.4261C1268.66 47.4261 1265.84 50.5457 1265.84 54.3731C1265.84 58.2005 1268.66 61.3463 1272.12 61.3463ZM1272.12 50.0476C1274.27 50.0476 1276.03 51.9875 1276.03 54.3731C1276.03 56.7587 1274.27 58.7248 1272.12 58.7248C1269.96 58.7248 1268.21 56.7849 1268.21 54.3731C1268.21 51.9613 1269.96 50.0476 1272.12 50.0476Z" fill="#F19106"/>
<path d="M1290.36 48.7369H1292.73V60.0356H1290.36V48.7369Z" fill="#F19106"/>
<path d="M1286.43 53.0623H1296.64V55.6838H1286.43V53.0623Z" fill="#F19106"/>
<path d="M1310.1 70.3119H1312.47V81.6106H1310.1V70.3119Z" fill="#F19106"/>
<path d="M1306.16 74.6636H1316.38V77.2851H1306.16V74.6636Z" fill="#F19106"/>
<path d="M1232.55 61.3463C1236.01 61.3463 1238.83 58.2267 1238.83 54.3731C1238.83 50.5195 1236.01 47.4261 1232.55 47.4261C1229.09 47.4261 1226.27 50.5457 1226.27 54.3731C1226.27 58.2005 1229.09 61.3463 1232.55 61.3463ZM1232.55 50.0476C1234.7 50.0476 1236.46 51.9875 1236.46 54.3731C1236.46 56.7587 1234.7 58.7248 1232.55 58.7248C1230.39 58.7248 1228.64 56.7849 1228.64 54.3731C1228.64 51.9613 1230.39 50.0476 1232.55 50.0476Z" fill="#F19106"/>
<path d="M1208.95 82.9214H1216.67C1218.02 82.9214 1219.11 81.7155 1219.11 80.2213V71.6751C1219.11 70.1808 1218.02 68.975 1216.67 68.975H1208.95C1207.6 68.975 1206.51 70.1808 1206.51 71.6751V80.2213C1206.51 81.7155 1207.6 82.9214 1208.95 82.9214ZM1216.67 71.6227L1216.74 80.2213L1208.97 80.2999C1208.97 80.2999 1208.9 80.2737 1208.9 80.2213V71.6751L1216.67 71.5965V71.6227Z" fill="#F19106"/>
<path d="M1193.38 61.3463C1196.84 61.3463 1199.66 58.2267 1199.66 54.3731C1199.66 50.5195 1196.84 47.4261 1193.38 47.4261C1189.92 47.4261 1187.1 50.5457 1187.1 54.3731C1187.1 58.2005 1189.92 61.3463 1193.38 61.3463ZM1193.38 50.0476C1195.54 50.0476 1197.29 51.9875 1197.29 54.3731C1197.29 56.7587 1195.54 58.7248 1193.38 58.7248C1191.22 58.7248 1189.47 56.7849 1189.47 54.3731C1189.47 51.9613 1191.22 50.0476 1193.38 50.0476Z" fill="#F19106"/>
<path d="M1250.79 48.7369H1253.16V60.0356H1250.79V48.7369Z" fill="#F19106"/>
<path d="M1246.86 53.0623H1257.07V55.6838H1246.86V53.0623Z" fill="#F19106"/>
<path d="M1192.2 70.3119H1194.57V81.6106H1192.2V70.3119Z" fill="#F19106"/>
<path d="M1188.26 74.6636H1198.47V77.2851H1188.26V74.6636Z" fill="#F19106"/>
<path d="M1174.43 82.9214C1177.88 82.9214 1180.7 79.8018 1180.7 75.9744C1180.7 72.147 1177.88 69.0274 1174.43 69.0274C1170.97 69.0274 1168.15 72.147 1168.15 75.9744C1168.15 79.8018 1170.97 82.9214 1174.43 82.9214ZM1174.43 71.6227C1176.58 71.6227 1178.33 73.5626 1178.33 75.9482C1178.33 78.3338 1176.58 80.2737 1174.43 80.2737C1172.27 80.2737 1170.52 78.3338 1170.52 75.9482C1170.52 73.5626 1172.27 71.6227 1174.43 71.6227Z" fill="#F19106"/>
<path d="M1155 61.3463C1158.46 61.3463 1161.28 58.2267 1161.28 54.3731C1161.28 50.5195 1158.46 47.4261 1155 47.4261C1151.54 47.4261 1148.72 50.5457 1148.72 54.3731C1148.72 58.2005 1151.54 61.3463 1155 61.3463ZM1155 50.0476C1157.15 50.0476 1158.91 51.9875 1158.91 54.3731C1158.91 56.7587 1157.15 58.7248 1155 58.7248C1152.84 58.7248 1151.09 56.7849 1151.09 54.3731C1151.09 51.9613 1152.84 50.0476 1155 50.0476Z" fill="#F19106"/>
<path d="M1115.83 82.9214C1119.29 82.9214 1122.11 79.8018 1122.11 75.9744C1122.11 72.147 1119.29 69.0274 1115.83 69.0274C1112.37 69.0274 1109.55 72.147 1109.55 75.9744C1109.55 79.8018 1112.37 82.9214 1115.83 82.9214ZM1115.83 71.6227C1117.99 71.6227 1119.74 73.5626 1119.74 75.9482C1119.74 78.3338 1117.99 80.2737 1115.83 80.2737C1113.67 80.2737 1111.92 78.3338 1111.92 75.9482C1111.92 73.5626 1113.67 71.6227 1115.83 71.6227Z" fill="#F19106"/>
<path d="M1131.42 82.9214H1139.14C1140.5 82.9214 1141.59 81.7155 1141.59 80.2213V71.6751C1141.59 70.1808 1140.5 68.975 1139.14 68.975H1131.42C1130.07 68.975 1128.98 70.1808 1128.98 71.6751V80.2213C1128.98 81.7155 1130.07 82.9214 1131.42 82.9214ZM1139.14 71.6227L1139.22 80.2213L1131.44 80.2999C1131.44 80.2999 1131.37 80.2737 1131.37 80.2213V71.6751L1139.14 71.5965V71.6227Z" fill="#F19106"/>
<path d="M1111.97 82.9214H1119.69C1121.04 82.9214 1122.13 81.7155 1122.13 80.2213V71.6751C1122.13 70.1808 1121.04 68.975 1119.69 68.975H1111.97C1110.62 68.975 1109.53 70.1808 1109.53 71.6751V80.2213C1109.53 81.7155 1110.62 82.9214 1111.97 82.9214ZM1119.69 71.6227L1119.76 80.2213L1111.99 80.2999C1111.99 80.2999 1111.92 80.2737 1111.92 80.2213V71.6751L1119.69 71.5965V71.6227Z" fill="#F19106"/>
<path d="M1170.56 61.3463H1178.29C1179.64 61.3463 1180.73 60.1404 1180.73 58.6462V50.1001C1180.73 48.6058 1179.64 47.3999 1178.29 47.3999H1170.56C1169.21 47.3999 1168.12 48.6058 1168.12 50.1001V58.6462C1168.12 60.1404 1169.21 61.3463 1170.56 61.3463ZM1178.29 50.0476L1178.36 58.6462L1170.59 58.7248C1170.59 58.7248 1170.52 58.6986 1170.52 58.6462V50.1001L1178.29 50.0214V50.0476Z" fill="#F19106"/>
<path d="M1153.81 70.3119H1156.18V81.6106H1153.81V70.3119Z" fill="#F19106"/>
<path d="M1149.88 74.6636H1160.09V77.2851H1149.88V74.6636Z" fill="#F19106"/>
<path d="M1091.88 82.9214H1099.53C1100.88 82.9214 1101.99 81.6893 1101.99 80.195V71.7276C1101.99 70.2333 1100.88 69.0012 1099.53 69.0012H1091.88C1090.52 69.0012 1089.41 70.2333 1089.41 71.7276V80.195C1089.41 81.6893 1090.52 82.9214 1091.88 82.9214ZM1099.53 71.6227L1099.62 80.195L1091.88 80.2999C1091.88 80.2999 1091.78 80.2474 1091.78 80.195V71.7276L1099.53 71.6227Z" fill="#F19106"/>
<path d="M1076.26 61.3463C1079.72 61.3463 1082.54 58.2267 1082.54 54.3731C1082.54 50.5195 1079.72 47.4261 1076.26 47.4261C1072.8 47.4261 1069.98 50.5457 1069.98 54.3731C1069.98 58.2005 1072.8 61.3463 1076.26 61.3463ZM1076.26 50.0476C1078.42 50.0476 1080.17 51.9875 1080.17 54.3731C1080.17 56.7587 1078.42 58.7248 1076.26 58.7248C1074.1 58.7248 1072.35 56.7849 1072.35 54.3731C1072.35 51.9613 1074.1 50.0476 1076.26 50.0476Z" fill="#F19106"/>
<path d="M1052.66 82.9214H1060.39C1061.74 82.9214 1062.83 81.7155 1062.83 80.2213V71.6751C1062.83 70.1808 1061.74 68.975 1060.39 68.975H1052.66C1051.31 68.975 1050.22 70.1808 1050.22 71.6751V80.2213C1050.22 81.7155 1051.31 82.9214 1052.66 82.9214ZM1060.39 71.6227L1060.46 80.2213L1052.69 80.2999C1052.69 80.2999 1052.61 80.2737 1052.61 80.2213V71.6751L1060.39 71.5965V71.6227Z" fill="#F19106"/>
<path d="M1094.51 48.7369H1096.87V60.0356H1094.51V48.7369Z" fill="#F19106"/>
<path d="M1090.6 53.0623H1100.81V55.6838H1090.6V53.0623Z" fill="#F19106"/>
<path d="M1075.08 70.3119H1077.45V81.6106H1075.08V70.3119Z" fill="#F19106"/>
<path d="M1071.14 74.6636H1081.35V77.2851H1071.14V74.6636Z" fill="#F19106"/>
<path d="M1035.91 70.3119H1038.28V81.6106H1035.91V70.3119Z" fill="#F19106"/>
<path d="M1032 74.6636H1042.21V77.2851H1032V74.6636Z" fill="#F19106"/>
<path d="M1487.6 35.5477C1491.06 35.5477 1493.88 32.4282 1493.88 28.6008C1493.88 24.7733 1491.06 21.6275 1487.6 21.6275C1484.14 21.6275 1481.32 24.7471 1481.32 28.6008C1481.32 32.4544 1484.14 35.5477 1487.6 35.5477ZM1487.6 24.249C1489.75 24.249 1491.51 26.189 1491.51 28.6008C1491.51 31.0125 1489.75 32.9262 1487.6 32.9262C1485.44 32.9262 1483.69 30.9863 1483.69 28.6008C1483.69 26.2152 1485.44 24.249 1487.6 24.249Z" fill="#78191C"/>
<path d="M1468.15 13.9465C1471.6 13.9465 1474.42 10.8268 1474.42 6.99942C1474.42 3.17201 1471.6 0.0524235 1468.15 0.0524235C1464.69 0.0524235 1461.87 3.17201 1461.87 6.99942C1461.87 10.8268 1464.69 13.9465 1468.15 13.9465ZM1468.15 2.64778C1470.3 2.64778 1472.05 4.58768 1472.05 6.97326C1472.05 9.35883 1470.3 11.2987 1468.15 11.2987C1465.99 11.2987 1464.24 9.35883 1464.24 6.97326C1464.24 4.58768 1465.99 2.64778 1468.15 2.64778Z" fill="#78191C"/>
<path d="M1429 35.5478C1432.46 35.5478 1435.28 32.4282 1435.28 28.6008C1435.28 24.7734 1432.46 21.6276 1429 21.6276C1425.54 21.6276 1422.72 24.7472 1422.72 28.6008C1422.72 32.4544 1425.54 35.5478 1429 35.5478ZM1429 24.2491C1431.16 24.2491 1432.91 26.189 1432.91 28.6008C1432.91 31.0126 1431.16 32.9263 1429 32.9263C1426.85 32.9263 1425.09 30.9864 1425.09 28.6008C1425.09 26.2152 1426.85 24.2491 1429 24.2491Z" fill="#78191C"/>
<path d="M1444.57 35.5478H1452.29C1453.64 35.5478 1454.73 34.3419 1454.73 32.8476V24.3277C1454.73 22.8334 1453.64 21.6276 1452.29 21.6276H1444.57C1443.22 21.6276 1442.13 22.8334 1442.13 24.3277V32.8476C1442.13 34.3419 1443.22 35.5478 1444.57 35.5478ZM1452.29 24.2491L1452.36 32.8476L1444.59 32.9263C1444.59 32.9263 1444.52 32.9001 1444.52 32.8476V24.3277L1452.29 24.2491Z" fill="#78191C"/>
<path d="M1483.74 13.9465H1491.44C1492.79 13.9465 1493.88 12.7406 1493.88 11.2463V2.70015C1493.88 1.20589 1492.79 0 1491.44 0H1483.71C1482.36 0 1481.27 1.20589 1481.27 2.70015V11.2463C1481.27 12.7406 1482.36 13.9465 1483.71 13.9465H1483.74ZM1491.46 2.64775L1491.53 11.2463L1483.76 11.325C1483.76 11.325 1483.69 11.2987 1483.69 11.2463V2.70015L1491.46 2.62151V2.64775Z" fill="#78191C"/>
<path d="M1425.14 35.5478H1432.86C1434.22 35.5478 1435.31 34.3419 1435.31 32.8476V24.3277C1435.31 22.8334 1434.22 21.6276 1432.86 21.6276H1425.14C1423.79 21.6276 1422.7 22.8334 1422.7 24.3277V32.8476C1422.7 34.3419 1423.79 35.5478 1425.14 35.5478ZM1432.86 24.2491L1432.94 32.8476L1425.16 32.9263C1425.16 32.9263 1425.09 32.9001 1425.09 32.8476V24.3277L1432.86 24.2491Z" fill="#78191C"/>
<path d="M1369.7 13.9465C1373.16 13.9465 1375.98 10.8268 1375.98 6.99942C1375.98 3.17201 1373.16 0.0524235 1369.7 0.0524235C1366.24 0.0524235 1363.42 3.17201 1363.42 6.99942C1363.42 10.8268 1366.24 13.9465 1369.7 13.9465ZM1369.7 2.64778C1371.85 2.64778 1373.61 4.58768 1373.61 6.97326C1373.61 9.35883 1371.85 11.2987 1369.7 11.2987C1367.54 11.2987 1365.79 9.35883 1365.79 6.97326C1365.79 4.58768 1367.54 2.64778 1369.7 2.64778Z" fill="#F19106"/>
<path d="M1365.83 13.9465H1373.56C1374.91 13.9465 1376 12.7406 1376 11.2463V2.70018C1376 1.20592 1374.91 2.67029e-05 1373.56 2.67029e-05H1365.83C1364.48 2.67029e-05 1363.39 1.20592 1363.39 2.70018V11.2463C1363.39 12.7406 1364.48 13.9465 1365.83 13.9465ZM1373.56 2.64778L1373.63 11.2463L1365.86 11.325C1365.86 11.325 1365.79 11.2988 1365.79 11.2463V2.70018L1373.56 2.62154V2.64778Z" fill="#F19106"/>
<path d="M1429 13.9465C1432.46 13.9465 1435.28 10.8268 1435.28 6.99942C1435.28 3.17201 1432.46 0.0524235 1429 0.0524235C1425.54 0.0524235 1422.72 3.17201 1422.72 6.99942C1422.72 10.8268 1425.54 13.9465 1429 13.9465ZM1429 2.64778C1431.16 2.64778 1432.91 4.58768 1432.91 6.97326C1432.91 9.35883 1431.16 11.2987 1429 11.2987C1426.85 11.2987 1425.09 9.35883 1425.09 6.97326C1425.09 4.58768 1426.85 2.64778 1429 2.64778Z" fill="#78191C"/>
<path d="M1466.96 22.9383H1469.33V34.237H1466.96V22.9383Z" fill="#78191C"/>
<path d="M1463.05 27.2637H1473.26V29.8853H1463.05V27.2637Z" fill="#78191C"/>
<path d="M1405.02 35.5478H1412.68C1414.03 35.5478 1415.14 34.3156 1415.14 32.8214V24.3539C1415.14 22.8597 1414.03 21.6276 1412.68 21.6276H1405.02C1403.67 21.6276 1402.56 22.8597 1402.56 24.3539V32.8214C1402.56 34.3156 1403.67 35.5478 1405.02 35.5478ZM1412.68 24.2491L1412.77 32.8214L1405.02 32.9263C1405.02 32.9263 1404.93 32.8738 1404.93 32.8214V24.3539L1412.68 24.2491Z" fill="#78191C"/>
<path d="M1389.41 13.9465C1392.87 13.9465 1395.69 10.8268 1395.69 6.99942C1395.69 3.17201 1392.87 0.0524235 1389.41 0.0524235C1385.95 0.0524235 1383.13 3.17201 1383.13 6.99942C1383.13 10.8268 1385.95 13.9465 1389.41 13.9465ZM1389.41 2.64778C1391.57 2.64778 1393.32 4.58768 1393.32 6.97326C1393.32 9.35883 1391.57 11.2987 1389.41 11.2987C1387.25 11.2987 1385.5 9.35883 1385.5 6.97326C1385.5 4.58768 1387.25 2.64778 1389.41 2.64778Z" fill="#F19106"/>
<path d="M1365.83 35.5478H1373.56C1374.91 35.5478 1376 34.3419 1376 32.8476V24.3277C1376 22.8334 1374.91 21.6276 1373.56 21.6276H1365.83C1364.48 21.6276 1363.39 22.8334 1363.39 24.3277V32.8476C1363.39 34.3419 1364.48 35.5478 1365.83 35.5478ZM1373.56 24.2491L1373.63 32.8476L1365.86 32.9263C1365.86 32.9263 1365.79 32.9001 1365.79 32.8476V24.3277L1373.56 24.2491Z" fill="#F19106"/>
<path d="M1350.24 13.9465C1353.7 13.9465 1356.52 10.8268 1356.52 6.99942C1356.52 3.17201 1353.7 0.0524235 1350.24 0.0524235C1346.78 0.0524235 1343.96 3.17201 1343.96 6.99942C1343.96 10.8268 1346.78 13.9465 1350.24 13.9465ZM1350.24 2.64778C1352.4 2.64778 1354.15 4.58768 1354.15 6.97326C1354.15 9.35883 1352.4 11.2987 1350.24 11.2987C1348.09 11.2987 1346.33 9.35883 1346.33 6.97326C1346.33 4.58768 1348.09 2.64778 1350.24 2.64778Z" fill="#F19106"/>
<path d="M1407.65 1.33704H1410.02V12.6358H1407.65V1.33704Z" fill="#78191C"/>
<path d="M1403.74 5.68867H1413.96V8.31018H1403.74V5.68867Z" fill="#78191C"/>
<path d="M1388.22 22.9383H1390.59V34.237H1388.22V22.9383Z" fill="#F19106"/>
<path d="M1384.32 27.2637H1394.53V29.8853H1384.32V27.2637Z" fill="#F19106"/>
<path d="M1349.06 22.9383H1351.43V34.237H1349.06V22.9383Z" fill="#F19106"/>
<path d="M1345.15 27.2637H1355.36V29.8853H1345.15V27.2637Z" fill="#F19106"/>
<path d="M1331.31 35.5478C1334.77 35.5478 1337.59 32.4282 1337.59 28.6008C1337.59 24.7734 1334.77 21.6275 1331.31 21.6275C1327.85 21.6275 1325.03 24.7471 1325.03 28.6008C1325.03 32.4544 1327.85 35.5478 1331.31 35.5478ZM1331.31 24.2491C1333.47 24.2491 1335.22 26.189 1335.22 28.6008C1335.22 31.0126 1333.47 32.9263 1331.31 32.9263C1329.16 32.9263 1327.4 30.9863 1327.4 28.6008C1327.4 26.2152 1329.16 24.2491 1331.31 24.2491Z" fill="#F19106"/>
<path d="M1311.88 13.9465C1315.34 13.9465 1318.16 10.8268 1318.16 6.99941C1318.16 3.172 1315.34 0.0524139 1311.88 0.0524139C1308.42 0.0524139 1305.6 3.172 1305.6 6.99941C1305.6 10.8268 1308.42 13.9465 1311.88 13.9465ZM1311.88 2.64777C1314.04 2.64777 1315.79 4.58767 1315.79 6.97325C1315.79 9.35882 1314.04 11.2987 1311.88 11.2987C1309.73 11.2987 1307.97 9.35882 1307.97 6.97325C1307.97 4.58767 1309.73 2.64777 1311.88 2.64777Z" fill="#F19106"/>
<path d="M1272.72 35.5478C1276.18 35.5478 1278.99 32.4282 1278.99 28.6008C1278.99 24.7734 1276.18 21.6275 1272.72 21.6275C1269.26 21.6275 1266.44 24.7471 1266.44 28.6008C1266.44 32.4544 1269.26 35.5478 1272.72 35.5478ZM1272.72 24.2491C1274.87 24.2491 1276.63 26.189 1276.63 28.6008C1276.63 31.0126 1274.87 32.9263 1272.72 32.9263C1270.56 32.9263 1268.81 30.9863 1268.81 28.6008C1268.81 26.2152 1270.56 24.2491 1272.72 24.2491Z" fill="#F19106"/>
<path d="M1288.28 35.5478H1296.01C1297.36 35.5478 1298.45 34.3419 1298.45 32.8476V24.3277C1298.45 22.8334 1297.36 21.6275 1296.01 21.6275H1288.28C1286.93 21.6275 1285.84 22.8334 1285.84 24.3277V32.8476C1285.84 34.3419 1286.93 35.5478 1288.28 35.5478ZM1296.01 24.2491L1296.08 32.8476L1288.31 32.9263C1288.31 32.9263 1288.24 32.9 1288.24 32.8476V24.3277L1296.01 24.2491Z" fill="#F19106"/>
<path d="M1268.85 35.5478H1276.58C1277.93 35.5478 1279.02 34.3419 1279.02 32.8476V24.3277C1279.02 22.8334 1277.93 21.6275 1276.58 21.6275H1268.85C1267.5 21.6275 1266.41 22.8334 1266.41 24.3277V32.8476C1266.41 34.3419 1267.5 35.5478 1268.85 35.5478ZM1276.58 24.2491L1276.65 32.8476L1268.88 32.9263C1268.88 32.9263 1268.81 32.9 1268.81 32.8476V24.3277L1276.58 24.2491Z" fill="#F19106"/>
<path d="M1213.41 13.9465C1216.87 13.9465 1219.69 10.8268 1219.69 6.99941C1219.69 3.172 1216.87 0.0524139 1213.41 0.0524139C1209.95 0.0524139 1207.13 3.172 1207.13 6.99941C1207.13 10.8268 1209.95 13.9465 1213.41 13.9465ZM1213.41 2.64777C1215.57 2.64777 1217.32 4.58767 1217.32 6.97325C1217.32 9.35882 1215.57 11.2987 1213.41 11.2987C1211.25 11.2987 1209.5 9.35882 1209.5 6.97325C1209.5 4.58767 1211.25 2.64777 1213.41 2.64777Z" fill="#F19106"/>
<path d="M1209.55 13.9465H1217.27C1218.62 13.9465 1219.71 12.7406 1219.71 11.2463V2.70017C1219.71 1.20591 1218.62 1.71661e-05 1217.27 1.71661e-05H1209.55C1208.2 1.71661e-05 1207.11 1.20591 1207.11 2.70017V11.2463C1207.11 12.7406 1208.2 13.9465 1209.55 13.9465ZM1217.27 2.64777L1217.34 11.2463L1209.57 11.325C1209.57 11.325 1209.5 11.2988 1209.5 11.2463V2.70017L1217.27 2.62153V2.64777Z" fill="#F19106"/>
<path d="M1327.45 13.9465H1335.17C1336.52 13.9465 1337.61 12.7406 1337.61 11.2463V2.70018C1337.61 1.20592 1336.52 2.67029e-05 1335.17 2.67029e-05H1327.45C1326.1 2.67029e-05 1325.01 1.20592 1325.01 2.70018V11.2463C1325.01 12.7406 1326.1 13.9465 1327.45 13.9465ZM1335.17 2.64778L1335.24 11.2463L1327.47 11.325C1327.47 11.325 1327.4 11.2988 1327.4 11.2463V2.70018L1335.17 2.62154V2.64778Z" fill="#F19106"/>
<path d="M1272.72 13.9465C1276.18 13.9465 1278.99 10.8268 1278.99 6.99941C1278.99 3.172 1276.18 0.0524139 1272.72 0.0524139C1269.26 0.0524139 1266.44 3.172 1266.44 6.99941C1266.44 10.8268 1269.26 13.9465 1272.72 13.9465ZM1272.72 2.64777C1274.87 2.64777 1276.63 4.58767 1276.63 6.97325C1276.63 9.35882 1274.87 11.2987 1272.72 11.2987C1270.56 11.2987 1268.81 9.35882 1268.81 6.97325C1268.81 4.58767 1270.56 2.64777 1272.72 2.64777Z" fill="#F19106"/>
<path d="M1290.96 1.33705H1293.33V12.6358H1290.96V1.33705Z" fill="#F19106"/>
<path d="M1287.03 5.68868H1297.24V8.3102H1287.03V5.68868Z" fill="#F19106"/>
<path d="M1248.74 35.5478H1256.39C1257.74 35.5478 1258.85 34.3156 1258.85 32.8214V24.3539C1258.85 22.8597 1257.74 21.6275 1256.39 21.6275H1248.74C1247.39 21.6275 1246.27 22.8597 1246.27 24.3539V32.8214C1246.27 34.3156 1247.39 35.5478 1248.74 35.5478ZM1256.39 24.2491L1256.49 32.8214L1248.74 32.9263C1248.74 32.9263 1248.64 32.8738 1248.64 32.8214V24.3539L1256.39 24.2491Z" fill="#F19106"/>
<path d="M1233.15 13.9465C1236.61 13.9465 1239.43 10.8268 1239.43 6.99941C1239.43 3.172 1236.61 0.0524139 1233.15 0.0524139C1229.69 0.0524139 1226.87 3.172 1226.87 6.99941C1226.87 10.8268 1229.69 13.9465 1233.15 13.9465ZM1233.15 2.64777C1235.3 2.64777 1237.06 4.58767 1237.06 6.97325C1237.06 9.35882 1235.3 11.2987 1233.15 11.2987C1230.99 11.2987 1229.24 9.35882 1229.24 6.97325C1229.24 4.58767 1230.99 2.64777 1233.15 2.64777Z" fill="#F19106"/>
<path d="M1209.55 35.5478H1217.27C1218.62 35.5478 1219.71 34.3419 1219.71 32.8476V24.3277C1219.71 22.8334 1218.62 21.6275 1217.27 21.6275H1209.55C1208.2 21.6275 1207.11 22.8334 1207.11 24.3277V32.8476C1207.11 34.3419 1208.2 35.5478 1209.55 35.5478ZM1217.27 24.2491L1217.34 32.8476L1209.57 32.9263C1209.57 32.9263 1209.5 32.9 1209.5 32.8476V24.3277L1217.27 24.2491Z" fill="#F19106"/>
<path d="M1193.98 13.9465C1197.44 13.9465 1200.26 10.8268 1200.26 6.99941C1200.26 3.172 1197.44 0.0524139 1193.98 0.0524139C1190.52 0.0524139 1187.7 3.172 1187.7 6.99941C1187.7 10.8268 1190.52 13.9465 1193.98 13.9465ZM1193.98 2.64777C1196.14 2.64777 1197.89 4.58767 1197.89 6.97325C1197.89 9.35882 1196.14 11.2987 1193.98 11.2987C1191.82 11.2987 1190.07 9.35882 1190.07 6.97325C1190.07 4.58767 1191.82 2.64777 1193.98 2.64777Z" fill="#F19106"/>
<path d="M1251.39 1.33705H1253.76V12.6358H1251.39V1.33705Z" fill="#F19106"/>
<path d="M1247.46 5.68868H1257.67V8.3102H1247.46V5.68868Z" fill="#F19106"/>
<path d="M1231.96 22.9383H1234.33V34.237H1231.96V22.9383Z" fill="#F19106"/>
<path d="M1228.03 27.2638H1238.24V29.8853H1228.03V27.2638Z" fill="#F19106"/>
<path d="M1192.8 22.9383H1195.17V34.237H1192.8V22.9383Z" fill="#F19106"/>
<path d="M1188.86 27.2638H1199.07V29.8853H1188.86V27.2638Z" fill="#F19106"/>
<path d="M1175.03 35.5478C1178.48 35.5478 1181.3 32.4282 1181.3 28.6008C1181.3 24.7734 1178.48 21.6275 1175.03 21.6275C1171.57 21.6275 1168.75 24.7472 1168.75 28.6008C1168.75 32.4544 1171.57 35.5478 1175.03 35.5478ZM1175.03 24.2491C1177.18 24.2491 1178.93 26.189 1178.93 28.6008C1178.93 31.0126 1177.18 32.9263 1175.03 32.9263C1172.87 32.9263 1171.12 30.9864 1171.12 28.6008C1171.12 26.2152 1172.87 24.2491 1175.03 24.2491Z" fill="#F19106"/>
<path d="M1116.43 35.5478C1119.89 35.5478 1122.71 32.4282 1122.71 28.6008C1122.71 24.7734 1119.89 21.6275 1116.43 21.6275C1112.97 21.6275 1110.15 24.7472 1110.15 28.6008C1110.15 32.4544 1112.97 35.5478 1116.43 35.5478ZM1116.43 24.2491C1118.59 24.2491 1120.34 26.189 1120.34 28.6008C1120.34 31.0126 1118.59 32.9263 1116.43 32.9263C1114.27 32.9263 1112.52 30.9864 1112.52 28.6008C1112.52 26.2152 1114.27 24.2491 1116.43 24.2491Z" fill="#F19106"/>
<path d="M1132.02 35.5478H1139.74C1141.1 35.5478 1142.19 34.3419 1142.19 32.8476V24.3277C1142.19 22.8334 1141.1 21.6275 1139.74 21.6275H1132.02C1130.67 21.6275 1129.58 22.8334 1129.58 24.3277V32.8476C1129.58 34.3419 1130.67 35.5478 1132.02 35.5478ZM1139.74 24.2491L1139.82 32.8476L1132.04 32.9263C1132.04 32.9263 1131.97 32.9 1131.97 32.8476V24.3277L1139.74 24.2491Z" fill="#F19106"/>
<path d="M1112.57 35.5478H1120.29C1121.64 35.5478 1122.73 34.3419 1122.73 32.8476V24.3277C1122.73 22.8334 1121.64 21.6275 1120.29 21.6275H1112.57C1111.22 21.6275 1110.13 22.8334 1110.13 24.3277V32.8476C1110.13 34.3419 1111.22 35.5478 1112.57 35.5478ZM1120.29 24.2491L1120.36 32.8476L1112.59 32.9263C1112.59 32.9263 1112.52 32.9 1112.52 32.8476V24.3277L1120.29 24.2491Z" fill="#F19106"/>
<path d="M1116.43 13.9465C1119.89 13.9465 1122.71 10.8268 1122.71 6.99943C1122.71 3.17202 1119.89 0.0524368 1116.43 0.0524368C1112.97 0.0524368 1110.15 3.17202 1110.15 6.99943C1110.15 10.8268 1112.97 13.9465 1116.43 13.9465ZM1116.43 2.64779C1118.59 2.64779 1120.34 4.58769 1120.34 6.97327C1120.34 9.35885 1118.59 11.2987 1116.43 11.2987C1114.27 11.2987 1112.52 9.35885 1112.52 6.97327C1112.52 4.58769 1114.27 2.64779 1116.43 2.64779Z" fill="#F19106"/>
<path d="M1134.67 1.33706H1137.04V12.6358H1134.67V1.33706Z" fill="#F19106"/>
<path d="M1130.76 5.68869H1140.98V8.3102H1130.76V5.68869Z" fill="#F19106"/>
<path d="M1154.41 22.9383H1156.78V34.237H1154.41V22.9383Z" fill="#F19106"/>
<path d="M1150.48 27.2638H1160.69V29.8853H1150.48V27.2638Z" fill="#F19106"/>
<path d="M1092.47 35.5478H1100.13C1101.48 35.5478 1102.59 34.3156 1102.59 32.8214V24.3539C1102.59 22.8597 1101.48 21.6275 1100.13 21.6275H1092.47C1091.12 21.6275 1090.01 22.8597 1090.01 24.3539V32.8214C1090.01 34.3156 1091.12 35.5478 1092.47 35.5478ZM1100.13 24.2491L1100.22 32.8214L1092.47 32.9263C1092.47 32.9263 1092.38 32.8738 1092.38 32.8214V24.3539L1100.13 24.2491Z" fill="#F19106"/>
<path d="M1075.68 22.9383H1078.05V34.237H1075.68V22.9383Z" fill="#F19106"/>
<path d="M1071.74 27.2638H1081.95V29.8853H1071.74V27.2638Z" fill="#F19106"/>
<rect y="101" width="297" height="35" fill="#78191C"/>
<rect x="297" y="101" width="1215" height="35" fill="#F19106"/>
</svg>
