<?xml version="1.0" encoding="utf-8"?>
<!-- Generator: Adobe Illustrator 22.0.1, SVG Export Plug-In . SVG Version: 6.00 Build 0)  -->
<svg version="1.1" id="Layer_1" xmlns="http://www.w3.org/2000/svg" xmlns:xlink="http://www.w3.org/1999/xlink" x="0px" y="0px"
	 viewBox="0 0 1000 1000" style="enable-background:new 0 0 1000 1000;" xml:space="preserve">
<style type="text/css">
	.st0{display:none;fill:#808184;}
	.st1{display:none;fill:#EC1C24;}
	.st2{fill:#783035;}
	.st3{fill:#FFFFFF;}
	.st4{fill:none;stroke:#FFFFFF;stroke-width:1.173;}
	.st5{fill:none;stroke:#783035;}
	.st6{fill:#DF8339;}
	.st7{fill:none;stroke:#FFFFFF;stroke-width:0;}
	.st8{fill:#F69534;}
	.st9{fill:none;stroke:#FFFFFF;}
	.st10{fill:none;stroke:#FFFFFF;stroke-width:1.291;}
	.st11{font-family:'Helvetica-Bold';}
	.st12{font-size:6.7984px;}
	.st13{font-size:6.7983px;}
	.st14{font-size:6.7985px;}
</style>
<g>
	<polygon class="st0" points="513.8,396 515.7,396 515.7,398.6 513.8,398.6 513.8,396 513.8,396 	"/>
	<polygon class="st0" points="509.6,396 511.5,396 511.5,398.6 509.6,398.6 509.6,396 509.6,396 	"/>
	<polygon class="st0" points="518,396 519.9,396 519.9,398.6 518,398.6 518,396 518,396 	"/>
	<polygon class="st0" points="522.2,396 524.1,396 524.1,398.6 522.2,398.6 522.2,396 522.2,396 	"/>
	<polygon class="st0" points="513.8,400.3 515.7,400.3 515.7,402.8 513.8,402.8 513.8,400.3 513.8,400.3 	"/>
	<polygon class="st0" points="509.6,400.3 511.5,400.3 511.5,402.8 509.6,402.8 509.6,400.3 509.6,400.3 	"/>
	<polygon class="st0" points="518,400.3 519.9,400.3 519.9,402.8 518,402.8 518,400.3 518,400.3 	"/>
	<polygon class="st0" points="522.2,400.3 524.1,400.3 524.1,402.8 522.2,402.8 522.2,400.3 522.2,400.3 	"/>
	<polygon class="st0" points="513.8,391.7 515.7,391.7 515.7,394.3 513.8,394.3 513.8,391.7 513.8,391.7 	"/>
	<polygon class="st1" points="509.6,387.5 511.5,387.5 511.5,394.3 509.6,394.3 509.6,387.5 509.6,387.5 	"/>
	<polygon class="st0" points="518,391.7 519.9,391.7 519.9,394.3 518,394.3 518,391.7 518,391.7 	"/>
	<polygon class="st0" points="513.8,387.5 515.7,387.5 515.7,390.1 513.8,390.1 513.8,387.5 513.8,387.5 	"/>
	<polygon class="st0" points="518,387.5 519.9,387.5 519.9,390.1 518,390.1 518,387.5 518,387.5 	"/>
	<polygon class="st1" points="513.8,382.2 515.7,382.2 515.7,385.8 513.8,385.8 513.8,382.2 513.8,382.2 	"/>
	<polygon class="st0" points="513.8,404.5 515.7,404.5 515.7,408.2 513.8,408.2 513.8,404.5 513.8,404.5 	"/>
	<polygon class="st0" points="509.6,404.5 511.5,404.5 511.5,408.7 509.6,408.7 509.6,404.5 509.6,404.5 	"/>
	<polygon class="st0" points="518,404.5 519.9,404.5 519.9,407.7 518,407.7 518,404.5 518,404.5 	"/>
	<polygon class="st1" points="505.4,396 507.3,396 507.3,409.5 505.4,409.5 505.4,396 505.4,396 	"/>
	<g>
		<polygon class="st0" points="522.2,404.5 524.1,404.5 524.1,407.2 522.2,407.2 522.2,404.5 522.2,404.5 		"/>
	</g>
	<path class="st1" d="M524.5,411.3c-0.3,0.3-0.6,0-0.9,0.2c0,0,0-0.2-0.1-0.1c-0.3,0.3-0.7,0.1-1.1-0.1l0-0.1
		c-0.1,0-0.2,0.1-0.2,0.1l0-0.1c0,0.1-0.1,0-0.2,0.1l-0.1-0.2l0,0.1c-0.1,0.3-0.3,0-0.4,0.1l0-0.1c-0.2,0.2-0.5,0.1-0.8,0.2l0-0.2
		c0,0.1-0.1,0.2-0.2,0.2c0-0.1-0.1,0.1-0.2,0l0,0c-0.1,0.1-0.1-0.1-0.1,0.1l0-0.1c0,0.2-0.1-0.1-0.1,0v0l-0.1,0l0,0
		c-0.1,0-0.2-0.1-0.2,0.1c0-0.1,0.1,0,0-0.2c-0.4,0.1-0.7,0.1-1.1,0.1l-0.1-0.1l-0.2,0.1l0-0.1c-0.1-0.1-0.1,0.2-0.1,0.1l0-0.1
		c-0.1,0.1-0.1,0.1-0.2,0.1l0-0.1c-0.1,0.1-0.1,0-0.2,0.1l0-0.1c-0.1-0.1,0,0.2-0.1,0.1l0-0.1c-0.1,0.2-0.2,0.1-0.3,0.2l0,0l-0.3,0
		c0,0,0-0.2-0.1-0.2c0,0.2-0.2,0.1-0.1,0.3c-0.1,0-0.2-0.1-0.3,0c0-0.1,0-0.2,0-0.2l-0.1-0.1c0-0.1,0.1,0,0-0.1l-0.2,0.1
		c-0.1,0.1-0.1,0.3-0.2,0.3l0-0.2l-0.1,0.3c0,0,0-0.1-0.1-0.1l0,0.1c0,0-0.1,0-0.2-0.1l0-0.1l-0.1,0.1l0,0c0,0-0.1,0.1-0.1,0.2
		c0,0,0-0.1,0-0.1l-0.2,0.1l0-0.1l-0.3,0.2c0,0.1,0-0.1,0-0.1c-0.1-0.1-0.3,0.2-0.4,0l0,0.1c-0.1,0-0.1-0.1-0.1-0.1c0-0.1,0,0-0.1,0
		c0,0,0,0,0,0c-0.1,0.1-0.3,0.2-0.4,0.1c0,0-0.1,0.2-0.1,0.2l0-0.1c0-0.1-0.1,0-0.1-0.1c-0.1,0.1,0.2-0.1,0.2,0c0-0.1-0.1,0.2-0.1,0
		c-0.1,0-0.1,0.1-0.2,0c0,0,0-0.1,0-0.1l-0.1,0.1l0,0c0,0.1-0.1,0,0,0.1c0-0.1-0.1,0.1-0.1-0.1v-0.1l-0.1,0.2l0-0.1
		c0,0.2-0.1,0-0.1,0.2c-0.1-0.1-0.2,0-0.2-0.1c-0.1,0.1-0.1,0.1-0.2,0.1l0-0.1c0-0.1-0.1,0-0.1,0c0,0-0.1-0.1-0.2-0.2l0,0.2
		c-0.1-0.2-0.2,0.1-0.2,0c0,0,0.1-0.1,0-0.2c-0.1-0.2-0.1,0.2-0.2,0.1l0,0.2c-0.1-0.1-0.1,0.1-0.1-0.1c0,0.1-0.1,0-0.1,0.1
		c-0.2-0.1-0.3,0.1-0.5-0.2l-0.1,0.1c0,0.1,0-0.1,0.1,0l0,0.1c0,0-0.1,0-0.1-0.2c-0.1-0.1-0.1,0.3-0.2,0.2l-0.1-0.1l-0.1,0.1
		c-0.1,0-0.1-0.1-0.1-0.3l-0.1,0.1l-0.1-0.1c0.1,0.1,0,0.1,0,0.1l0,0l-0.1,0l0.1,0.1l-0.1,0.1c0-0.1-0.1-0.1-0.1-0.1l0,0.1
		c0-0.1-0.1,0,0-0.1l0.1,0c0,0,0-0.1-0.1-0.1c0,0.1,0,0.2,0,0.2l0-0.1l-0.1,0l0,0.1l0,0c0,0.1-0.1,0.1-0.1,0.2l-0.1-0.1l0,0
		c-0.1,0-0.1,0-0.1,0.1v0l-0.1,0.1c-0.1-0.1-0.1-0.4-0.1-0.2c-0.1,0-0.1,0.2,0,0.3c-0.1,0-0.2,0.1-0.3,0l0,0.1c-0.2,0-0.3,0.2-0.5,0
		l0-0.2c0,0.1-0.1-0.1,0,0.1l0.1,0.2c-0.1,0.1-0.2,0.1-0.3,0l0,0.1c0-0.1-0.1-0.1-0.1-0.1l0,0.1l-0.1-0.1c0,0,0,0.2-0.1,0.1l0-0.1
		c0,0.1-0.1,0.2-0.2,0.2l-0.1-0.1l0,0.1l-0.2-0.2c-0.1,0.3-0.3,0.4-0.5,0.4l0-0.1c-0.1,0,0,0.1,0,0.1l-0.1-0.2
		c-0.1,0-0.1,0.1-0.1,0.2c0,0.1,0-0.1,0,0c0,0-0.1,0-0.1,0.1l-0.1-0.2l0,0.1c-0.1-0.1,0-0.3-0.1-0.5l0,0c-0.1-0.1,0.1-0.2,0-0.2
		c0,0.1,0,0.3,0,0.3c-0.1,0.1,0,0.3-0.1,0.3c0-0.1,0.1,0,0-0.1c-0.1-0.1-0.1,0.1-0.1,0.1l0,0.2l-0.1-0.1c0,0.1,0,0.2,0,0.2
		c0,0.2-0.1,0-0.1,0.1c-0.1-0.1,0-0.3-0.1-0.3c0,0.1,0,0.2,0,0.3l-0.1-0.2c-0.1-0.1,0,0.2-0.1,0l0,0.1l-0.1-0.1c0,0-0.1,0.2-0.1,0
		c0,0-0.1,0,0,0.1c0.1,0.1,0-0.1,0.1,0c-0.1-0.1-0.1,0-0.1,0.1l0-0.1l0,0.1l0-0.1l0,0.1c-0.1,0.1-0.1-0.2-0.1-0.1l0-0.1l-0.1,0
		l0,0.3c0,0.1-0.1-0.1-0.1,0l0-0.1c0,0-0.1-0.1-0.2-0.1c0,0,0,0.2,0,0.2l-0.1-0.1l0,0.2l-0.2-0.2l0-0.2l0,0c0-0.1-0.1-0.1-0.1-0.2
		l-0.1,0.1c0.2,0.2,0,0.3,0.1,0.5c-0.1,0.1-0.3-0.4-0.2-0.1c0,0,0.1,0.2,0.1,0.1c-0.1,0,0,0.2-0.1,0.2c0-0.1-0.1-0.2-0.1-0.3
		c0,0.1,0.1,0,0.1,0c-0.1-0.1-0.1-0.2-0.1-0.2c0,0-0.1,0.1,0,0.2c0,0.1,0.1,0,0.1,0.1c-0.1,0.1-0.1-0.1-0.1,0.1c0,0,0.1,0.1,0.1,0.1
		l0,0.1l0-0.1c-0.1,0,0,0.1-0.1,0.2l-0.1-0.1c0-0.1,0.1,0,0-0.2l-0.1,0.1l0-0.1c0,0-0.2-0.2-0.2-0.1l0.1,0.1l-0.1,0.2
		c-0.1-0.1-0.1,0-0.1-0.1c0.1,0.1,0.2,0,0.2-0.1c-0.1-0.1,0.1,0,0-0.2c-0.1,0-0.2-0.1-0.2-0.2l0,0.1l0.1,0.2c-0.1,0-0.1,0.1-0.1,0.2
		l-0.1-0.2l-0.3,0.1c0.1,0.1-0.1,0.1,0.1,0.2c0.1,0,0.2,0.1,0.2,0.2l-0.1-0.1c0,0.1-0.1-0.1-0.1,0.1c0-0.1-0.1-0.2-0.2-0.3
		c0,0.1-0.1-0.1-0.1,0l-0.1,0.3c-0.2,0-0.2,0.2-0.2,0.2c-0.1,0-0.2-0.2-0.2-0.1c0,0,0.2,0.1,0,0.1l0,0c0,0-0.2,0-0.1,0.2l-0.1-0.1
		l0,0.1l-0.1-0.1c-0.1,0-0.1,0.1-0.1,0.2l0.1,0c0,0.1-0.1,0.1-0.1,0.2l-0.1,0l0,0.1c-0.1,0-0.2,0-0.1,0l-0.2-0.2l0.2,0.1
		c0.1,0,0.1-0.1,0-0.1l0,0.1c-0.1,0-0.1-0.1-0.2-0.2l0,0.1v-0.2l0.1,0.1c-0.1-0.1-0.1-0.2,0-0.2c0.2,0.1,0-0.2,0.2-0.2l0.1,0.3
		l0.1,0c0-0.1-0.1-0.2-0.1-0.3l0.1,0.1c0-0.1-0.1-0.2,0-0.2l0.4-0.2l0.1,0.1c-0.1-0.2,0.1-0.2,0.2-0.3c0.2,0,0.2-0.2,0.4-0.1
		l0.6-0.4l0,0.1c0-0.1,0.1,0.1,0.1,0c-0.1-0.1,0-0.2,0-0.2c0.1,0,0.2-0.1,0.3-0.3l0,0.1c0-0.2,0.2-0.1,0.3-0.1l0.1,0.1
		c0-0.2,0.1-0.2,0.1-0.3l0.3,0c0.2-0.3,0.5-0.2,0.8-0.5l0,0.1c0.2-0.3,0.6-0.2,0.8-0.4l0,0.2c0.1,0,0.2-0.1,0.1-0.2
		c0.1,0,0.2-0.1,0.2,0c0.1,0,0.1-0.1,0.1-0.1l0.4,0l0,0l0,0.1c0-0.1,0.2,0,0.1-0.2c0.2,0.1,0.3-0.2,0.5,0l0-0.1
		c0.1,0,0.3,0.1,0.4-0.1l0,0.1l0-0.1c0.2-0.2,0.5,0,0.7,0c0.3-0.2,0.7-0.1,1.1-0.2l0,0c0.1-0.2,0.3,0.1,0.4-0.1l0.1,0.1
		c0.1-0.1,0.3,0.1,0.4-0.1l0,0c0.1,0.1,0.2-0.1,0.4,0l0,0.1c0.1,0.1,0.1-0.2,0.2,0l0-0.1c0.3,0,0.6-0.1,1-0.2c0.2,0.1,0,0.4,0.2,0.2
		l0,0c0.1-0.1,0.1,0.2,0.2,0.1c0-0.1,0-0.1,0-0.2c0.1,0.1,0.2,0.2,0.3,0.1l0,0.1c0.1-0.2,0.3-0.1,0.4-0.3l2.1-0.3
		c0.7,0,1.4-0.1,2.1,0c0.2,0.2,0.2,0.2,0.4,0.1l0,0.1c0-0.1,0.1,0,0.1-0.1l0.8,0l0,0.1l0.1-0.1l0,0l0-0.1c0.7-0.1,1.3,0.2,2,0.2
		c0.2,0.1,0.4,0,0.5,0c0.5,0.2,0.9,0.4,1.5,0.3C524.8,410.8,524.7,411.2,524.5,411.3L524.5,411.3L524.5,411.3z"/>
	<path class="st1" d="M505.9,414C506,414,506,413.9,505.9,414C506,413.9,506,414.1,505.9,414L505.9,414L505.9,414z"/>
	<polygon class="st1" points="506.2,413.8 506.3,413.7 506.3,413.8 506.2,413.8 506.2,413.8 	"/>
	<polygon class="st1" points="512.6,412.1 512.6,412.2 512.6,412.1 512.6,412.1 512.6,412.1 	"/>
	<path class="st1" d="M515.6,411.9C515.6,411.8,515.6,411.9,515.6,411.9L515.6,411.9L515.6,411.9L515.6,411.9z"/>
	<polygon class="st1" points="517.1,411.5 517.1,411.5 517.1,411.4 517.1,411.5 517.1,411.5 	"/>
	<path class="st1" d="M418.5,386.8c0.1,0.1,0.2,0.2,0.4,0.2c0.1,0.1,0.3,0.1,0.4,0.1c0.2,0,0.3,0,0.4-0.1c0.1-0.1,0.3-0.1,0.4-0.2
		c0.1-0.1,0.2-0.2,0.2-0.4c0.1-0.1,0.1-0.3,0.1-0.4c0-0.3-0.1-0.6-0.3-0.8c-0.2-0.2-0.5-0.3-0.8-0.3c-0.3,0-0.6,0.1-0.8,0.3
		c-0.2,0.2-0.3,0.5-0.3,0.8c0,0.2,0,0.3,0.1,0.4C418.4,386.5,418.4,386.6,418.5,386.8L418.5,386.8z"/>
	<path class="st1" d="M421.4,386.8c0.1,0.1,0.2,0.2,0.4,0.2c0.1,0.1,0.3,0.1,0.4,0.1c0.2,0,0.3,0,0.4-0.1c0.1-0.1,0.3-0.1,0.4-0.2
		c0.1-0.1,0.2-0.2,0.2-0.4c0.1-0.1,0.1-0.3,0.1-0.4c0-0.3-0.1-0.6-0.3-0.8c-0.2-0.2-0.5-0.3-0.8-0.3c-0.3,0-0.6,0.1-0.8,0.3
		c-0.2,0.2-0.3,0.5-0.3,0.8c0,0.2,0,0.3,0.1,0.4C421.3,386.5,421.3,386.6,421.4,386.8L421.4,386.8z"/>
	<path class="st1" d="M387.8,397.9c-0.1-0.1-0.2-0.2-0.3-0.2c-0.1-0.1-0.3-0.1-0.4-0.1c-0.3,0-0.6,0.1-0.8,0.3
		c-0.2,0.2-0.3,0.5-0.3,0.8c0,0.1,0,0.3,0.1,0.4c0.1,0.1,0.1,0.2,0.2,0.3c0.1,0.1,0.2,0.2,0.3,0.2c0.1,0.1,0.3,0.1,0.4,0.1
		c0.2,0,0.3,0,0.4-0.1c0.1-0.1,0.2-0.1,0.3-0.2c0.1-0.1,0.2-0.2,0.2-0.3c0.1-0.1,0.1-0.3,0.1-0.4c0-0.2,0-0.3-0.1-0.4
		C388,398.1,387.9,398,387.8,397.9L387.8,397.9z"/>
	<path class="st1" d="M390.9,397.9c-0.1-0.1-0.2-0.2-0.3-0.2c-0.1-0.1-0.3-0.1-0.4-0.1c-0.3,0-0.6,0.1-0.8,0.3
		c-0.2,0.2-0.3,0.5-0.3,0.8c0,0.1,0,0.3,0.1,0.4c0.1,0.1,0.1,0.2,0.2,0.3c0.1,0.1,0.2,0.2,0.3,0.2c0.1,0.1,0.3,0.1,0.4,0.1
		c0.2,0,0.3,0,0.4-0.1c0.1-0.1,0.2-0.1,0.3-0.2c0.1-0.1,0.2-0.2,0.2-0.3c0.1-0.1,0.1-0.3,0.1-0.4c0-0.2,0-0.3-0.1-0.4
		C391,398.1,391,398,390.9,397.9L390.9,397.9z"/>
	<path class="st1" d="M414.4,391.7c-0.2,0.3-0.4,0.6-0.7,0.9c-0.3,0.3-0.6,0.5-1,0.7c-0.4,0.2-0.8,0.4-1.3,0.5
		c-0.2-0.3-0.4-0.6-0.6-0.9c-0.3-0.3-0.6-0.6-0.9-1c-0.3-0.3-0.7-0.6-1-0.9c-0.3-0.3-0.7-0.6-1-0.8c0.5-0.1,1-0.1,1.6-0.2
		c0.6,0,1.2-0.1,1.8-0.1c0.4,0,0.8,0,1.1,0c0.4,0,0.7,0.1,1,0.1c0.3,0.1,0.6,0.1,0.8,0.2c0.2,0.1,0.3,0.1,0.4,0.2
		C414.6,391,414.5,391.3,414.4,391.7L414.4,391.7z M400.8,394.3c-0.2,0.3-0.4,0.6-0.7,0.8c-0.3,0.2-0.6,0.4-1,0.6
		c-0.4,0.1-0.8,0.2-1.2,0.2c-0.4,0-0.8-0.1-1.2-0.2c-0.4-0.1-0.7-0.3-1-0.6c-0.3-0.2-0.5-0.5-0.6-0.8c-0.2-0.3-0.2-0.7-0.2-1
		c0-0.4,0.1-0.7,0.2-1c0.2-0.3,0.4-0.6,0.7-0.8c0.3-0.2,0.6-0.4,1-0.6c0.4-0.1,0.8-0.2,1.2-0.2c0.4,0,0.8,0.1,1.2,0.2
		c0.4,0.1,0.7,0.3,1,0.6c0.3,0.2,0.5,0.5,0.7,0.8c0.2,0.3,0.2,0.7,0.2,1C401.1,393.6,401,394,400.8,394.3L400.8,394.3z M430.8,383.4
		v10.5h-1.9h-0.2h-0.6v-10.5h-2.3v10.5h-2h-0.1h-1.5v-5.3h-2.3v5.3H418h-0.1h-2.2c0.6-0.5,0.6-0.7,0.9-1.3c0.3-0.6,0.5-1.4,0.5-2.2
		c0-0.5-0.2-0.9-0.5-1.2c-0.3-0.3-0.7-0.6-1.2-0.8c-0.5-0.2-1.1-0.3-1.8-0.4c-0.7-0.1-1.4-0.1-2.1-0.1c-0.6,0-1.1,0-1.7,0.1
		c-0.6,0-1.1,0.1-1.7,0.2c-0.5,0.1-1,0.2-1.5,0.3c-0.4,0.1-0.8,0.2-1.1,0.3v2c0.1,0.1,0.3,0.2,0.5,0.4c0.2,0.2,0.4,0.3,0.7,0.5
		c0.2,0.2,0.5,0.4,0.7,0.6c0.3,0.2,0.5,0.4,0.8,0.7c0.2,0.2,0.1,0,0.3,0.3c0.2,0.2,0.4,0.4,0.6,0.6h-4.6h-0.2h-1.2
		c0-0.2,0-0.3,0.1-0.5c0-0.2,0-0.4,0-0.5c0-0.7-0.1-0.9-0.4-1.4c-0.3-0.6-0.6-1.1-1.1-1.5c-0.5-0.4-1-0.8-1.6-1
		c-0.6-0.2-1.3-0.4-2-0.4c-0.7,0-1.4,0.1-2,0.4c-0.6,0.2-1.2,0.6-1.6,1c-0.5,0.4-0.8,0.9-1.1,1.5c-0.3,0.6-0.4,1.2-0.4,1.8
		c0,0.3,0,0.2,0,0.6h-1.1h-0.2h-1.9v-5.3h-2.3v5.3H386h-0.2h-1.4c0.1-0.5,0.1-0.6,0.1-1.1c0-0.4,0-0.3,0-0.7l0-3.1h-2.3l0,3.2
		c0,0.5,0,0.9-0.1,1.3c0,0.4-0.1,0.8-0.3,1.3c-0.1,0.5-0.3,0.9-0.6,1.3c-0.2,0.4-0.5,0.7-0.8,1c-0.3,0.3-0.7,0.5-1.1,0.7
		c-0.4,0.2-0.9,0.2-1.4,0.2c-0.2,0-0.5,0-0.7-0.1c-0.2,0-0.5-0.1-0.8-0.2l-0.1,1.8c0.4,0.1,0.7,0.2,1.1,0.3c0.4,0.1,0.7,0.1,1,0.1
		c0.7,0,1.4-0.1,2.1-0.4c0.6-0.3,1.2-0.6,1.7-1.1c0.3-0.3,0.6-0.7,0.9-1c0.3-0.4,0.5-0.8,0.7-1.2h1.9h0.2h5.7h0.2h2.1
		c0.5,0.6,1.1,1,1.8,1.3c0.7,0.3,1.4,0.5,2.3,0.5c0.8,0,1.6-0.2,2.3-0.5c0.7-0.3,1.3-0.8,1.8-1.3h2.2h0.2h13.4h0.1h5.8h0.1h4.9h0.2
		h3.2c0.3,0,0.5-0.1,0.7-0.3c0.2-0.2,0.3-0.4,0.3-0.7v-11.8H430.8L430.8,383.4z"/>
	<path class="st1" d="M454.4,397.9c-0.1-0.1-0.2-0.2-0.4-0.2c-0.1-0.1-0.3-0.1-0.4-0.1c-0.3,0-0.6,0.1-0.8,0.3
		c-0.2,0.2-0.3,0.5-0.3,0.8c0,0.2,0,0.3,0.1,0.4c0.1,0.1,0.1,0.3,0.2,0.4c0.1,0.1,0.2,0.2,0.4,0.2c0.1,0.1,0.3,0.1,0.4,0.1
		c0.2,0,0.3,0,0.4-0.1c0.1-0.1,0.3-0.1,0.4-0.2c0.1-0.1,0.2-0.2,0.2-0.4c0.1-0.1,0.1-0.3,0.1-0.4c0-0.2,0-0.3-0.1-0.4
		C454.6,398.1,454.5,398,454.4,397.9L454.4,397.9z"/>
	<path class="st1" d="M457.5,397.9c-0.1-0.1-0.2-0.2-0.4-0.2c-0.1-0.1-0.3-0.1-0.4-0.1c-0.3,0-0.6,0.1-0.8,0.3
		c-0.2,0.2-0.3,0.5-0.3,0.8c0,0.2,0,0.3,0.1,0.4c0.1,0.1,0.1,0.3,0.2,0.4c0.1,0.1,0.2,0.2,0.4,0.2c0.1,0.1,0.3,0.1,0.4,0.1
		c0.2,0,0.3,0,0.4-0.1c0.1-0.1,0.3-0.1,0.4-0.2c0.1-0.1,0.2-0.2,0.2-0.4c0.1-0.1,0.1-0.3,0.1-0.4c0-0.2,0-0.3-0.1-0.4
		C457.7,398.1,457.6,398,457.5,397.9L457.5,397.9z"/>
	<path class="st1" d="M441.3,393.9c0.3-2.6,1.6-3.6,3.8-3.7c0.5,0,0.9,0.1,1.3,0.3c0.4,0.2,0.8,0.4,1.2,0.8c0.3,0.3,0.6,0.8,0.9,1.3
		c0.2,0.5,0.4,0.7,0.5,1.4L441.3,393.9L441.3,393.9z M491.5,383.4v10.5h-1.9h-0.2h-1.3c-0.1-0.6-0.2-1.1-0.4-1.6
		c-0.2-0.5-0.5-0.9-0.8-1.3c-0.3-0.4-0.7-0.8-1.2-1.1c-0.5-0.3-0.9-0.6-1.5-0.8c-0.5-0.2-1.1-0.4-1.7-0.5c-0.6-0.1-1.2-0.2-1.8-0.3
		c-0.6,0-1.3,0-1.9,0c-0.6,0.1-1.2,0.2-1.8,0.3l0.1,2.3c0.6-0.2,1.1-0.3,1.7-0.4c0.6-0.1,1.2-0.1,1.8,0c0.6,0,1.2,0.1,1.8,0.3
		c0.6,0.1,1.2,0.4,1.7,0.7c0.5,0.3,0.9,0.7,1.3,1.1c0.4,0.4,0.5,0.4,0.6,1.2h-11.1h-0.2h-1c0-0.3-0.1-0.6-0.2-1
		c-0.1-0.4-0.2-0.8-0.4-1.2c-0.2-0.4-0.4-0.8-0.8-1.2c-0.3-0.4-0.7-0.7-1.2-1c-0.5-0.3-1.1-0.5-1.8-0.7c-0.7-0.2-1.5-0.3-2.5-0.3
		h-4.1c0.5-0.7,0.5-0.7,1.1-1.2c0.6-0.5,1.3-0.7,2-1c0.5-0.1,1-0.3,1.4-0.3c0.5-0.1,1-0.1,1.4-0.2c0.5,0,0.9-0.1,1.3-0.1
		c0.4,0,0.8,0,1.1,0v-2.3c-0.4,0-0.8,0-1.2,0c-0.4,0-0.9,0-1.4,0.1c-0.5,0-1,0.1-1.6,0.2c-0.5,0.1-1.1,0.2-1.6,0.4
		c-0.5,0.2-1.1,0.4-1.6,0.7c-0.5,0.3-1,0.6-1.5,1c-0.5,0.4-0.9,0.8-1.3,1.3c-0.4,0.5-0.8,1-1,1.7c-0.1,0.5-0.1,0.8-0.1,1
		c0,0.2,0.1,0.4,0.2,0.5c0.1,0.2,0.3,0.3,0.5,0.4c0.2,0.1,0.4,0.1,0.7,0.1v0h5.6c0.7,0,1.2,0.1,1.7,0.2c0.5,0.1,0.7,0.3,1.1,0.5
		c0.4,0.2,0.7,0.4,0.9,0.6c0.2,0.2,0.4,0.5,0.6,0.7c0.1,0.3,0.3,0.5,0.3,0.8c0.1,0.3,0,0.1,0.1,0.3h-13.2h-0.2h-1.9v-5.3h-2.1v5.3
		h-1.7h-0.2h-1.2c-0.1-1-0.3-1.5-0.7-2.3c-0.4-0.8-0.8-1.4-1.4-1.9c-0.5-0.5-1.2-0.9-1.8-1.2c-0.7-0.3-1.4-0.4-2-0.4
		c-0.7,0-1.4,0.1-2.1,0.4c-0.7,0.3-1.3,0.7-1.9,1.2c-0.6,0.6-1,1.2-1.4,2.1c-0.4,0.8-0.6,1.6-0.6,2.7c-0.4,0.2-0.7,0.4-0.9,0.6
		c-0.3,0.2-0.7,0.7-0.9,1c-0.2,0.3-0.3,0.6-0.4,0.9c-0.1,0.3-0.1,0.7-0.1,1.1c0,0.6,0.1,1.3,0.4,2c0.3,0.7,0.6,1.3,1.2,1.9l1.6-1.2
		c-0.4-0.4-0.6-0.9-0.8-1.4c-0.2-0.5-0.3-0.9-0.3-1.4c0-0.3,0-0.5,0.1-0.7c0.1-0.2,0.2-0.4,0.4-0.6c0.2-0.2,0.4-0.3,0.7-0.4
		c0.3-0.1,0.6-0.2,1.1-0.2h11.1h0.2h5.7h0.2h16.4h0.2h14.5h0.2h3.2c0.3,0,0.5-0.1,0.7-0.3c0.2-0.2,0.3-0.4,0.3-0.7v-11.8H491.5
		L491.5,383.4z"/>
	<polygon class="st1" points="498.3,383.4 498.3,396.2 496,396.2 496,383.4 498.3,383.4 498.3,383.4 	"/>
	<polygon class="st0" points="380.2,409 376.4,409 376.4,404 380.2,404 380.2,405 378,405 378,405.9 380.1,405.9 380.1,406.9 
		378,406.9 378,408 380.2,408 380.2,409 	"/>
	<polygon class="st0" points="385.1,409 381.2,409 381.2,404 382.8,404 382.8,407.8 385.1,407.8 385.1,409 	"/>
	<polygon class="st0" points="393.5,409 392,409 392,407.1 389.7,407.1 389.7,409 388.2,409 388.2,404 389.7,404 389.7,405.8 
		392,405.8 392,404 393.5,404 393.5,409 	"/>
	<path class="st0" d="M397.9,407.1l-0.7-1.8l-0.7,1.8H397.9L397.9,407.1z M400.3,409h-1.6l-0.4-1h-2.2l-0.4,1h-1.6l2.2-5h1.7
		L400.3,409L400.3,409z"/>
	<polygon class="st0" points="406.2,409 404.4,409 402.4,406.7 402.4,409 400.9,409 400.9,404 402.4,404 402.4,406.2 404.3,404 
		405.9,404 404,406.4 406.2,409 	"/>
	<polygon class="st0" points="410.7,409 406.9,409 406.9,404 410.6,404 410.6,405 408.4,405 408.4,405.9 410.5,405.9 410.5,406.9 
		408.4,406.9 408.4,408 410.7,408 410.7,409 	"/>
	<polygon class="st0" points="415.5,409 411.7,409 411.7,404 415.4,404 415.4,405 413.2,405 413.2,405.9 415.3,405.9 415.3,406.9 
		413.2,406.9 413.2,408 415.5,408 415.5,409 	"/>
	<polygon class="st0" points="422.3,409 420.8,409 420.8,406.1 419.5,407.8 419.3,407.8 418,406.1 418,409 416.5,409 416.5,404 
		417.9,404 419.4,405.9 421,404 422.3,404 422.3,409 	"/>
	<polygon class="st0" points="425.8,404 428.5,404 428.5,404.6 426.5,404.6 426.5,406 428.5,406 428.5,406.7 426.5,406.7 426.5,409 
		425.8,409 425.8,404 	"/>
	<path class="st0" d="M431.7,404.6c-0.6,0-1.1,0.2-1.4,0.5c-0.4,0.4-0.6,0.8-0.6,1.4c0,0.5,0.2,1,0.6,1.4c0.4,0.4,0.8,0.5,1.4,0.5
		c0.6,0,1-0.2,1.4-0.6c0.4-0.4,0.6-0.8,0.6-1.4c0-0.5-0.2-1-0.6-1.4C432.8,404.8,432.3,404.6,431.7,404.6L431.7,404.6z M431.7,403.9
		c0.8,0,1.4,0.2,2,0.7c0.5,0.5,0.8,1.1,0.8,1.9s-0.3,1.4-0.8,1.9c-0.5,0.5-1.2,0.7-2,0.7c-0.8,0-1.4-0.2-1.9-0.7
		c-0.5-0.5-0.8-1.1-0.8-1.8c0-0.8,0.3-1.4,0.8-1.9C430.3,404.1,430.9,403.9,431.7,403.9L431.7,403.9z"/>
	<path class="st0" d="M436.3,404.6h-0.2v1.6h0.3c0.4,0,0.6,0,0.8-0.1c0.1-0.1,0.2-0.2,0.3-0.3c0.1-0.1,0.1-0.3,0.1-0.4
		c0-0.2,0-0.3-0.1-0.4c-0.1-0.1-0.2-0.2-0.4-0.3C436.9,404.6,436.7,404.6,436.3,404.6L436.3,404.6z M435.4,409V404h1.3
		c0.5,0,0.9,0.1,1.2,0.4c0.3,0.3,0.5,0.6,0.5,1c0,0.3-0.1,0.6-0.2,0.8c-0.1,0.2-0.4,0.4-0.6,0.5c0.2,0.1,0.3,0.3,0.5,0.4
		c0.2,0.2,0.4,0.5,0.7,1c0.2,0.3,0.3,0.5,0.4,0.6l0.3,0.4h-0.9l-0.2-0.3c0,0,0,0,0-0.1l-0.1-0.2l-0.2-0.4l-0.2-0.4
		c-0.1-0.2-0.3-0.4-0.4-0.5c-0.1-0.1-0.2-0.2-0.3-0.3c-0.1-0.1-0.3-0.1-0.5-0.1h-0.2v2.2H435.4L435.4,409z"/>
	<path class="st0" d="M446.3,407.9v0.8c-0.5,0.3-1.1,0.4-1.8,0.4c-0.6,0-1-0.1-1.4-0.3c-0.4-0.2-0.7-0.5-0.9-0.9
		c-0.2-0.4-0.3-0.8-0.3-1.3c0-0.7,0.3-1.4,0.8-1.9c0.5-0.5,1.2-0.8,1.9-0.8c0.5,0,1.1,0.1,1.8,0.4v0.8c-0.6-0.3-1.2-0.5-1.7-0.5
		c-0.6,0-1.1,0.2-1.4,0.5c-0.4,0.4-0.6,0.8-0.6,1.4c0,0.6,0.2,1,0.6,1.4c0.4,0.4,0.9,0.5,1.4,0.5
		C445.1,408.4,445.7,408.2,446.3,407.9L446.3,407.9z"/>
	<path class="st0" d="M449.7,404.6c-0.6,0-1.1,0.2-1.4,0.5c-0.4,0.4-0.6,0.8-0.6,1.4c0,0.5,0.2,1,0.6,1.4c0.4,0.4,0.8,0.5,1.4,0.5
		c0.6,0,1-0.2,1.4-0.6c0.4-0.4,0.6-0.8,0.6-1.4c0-0.5-0.2-1-0.6-1.4C450.7,404.8,450.2,404.6,449.7,404.6L449.7,404.6z M449.7,403.9
		c0.8,0,1.4,0.2,2,0.7c0.5,0.5,0.8,1.1,0.8,1.9s-0.3,1.4-0.8,1.9c-0.5,0.5-1.2,0.7-2,0.7c-0.8,0-1.4-0.2-1.9-0.7
		c-0.5-0.5-0.8-1.1-0.8-1.8c0-0.8,0.3-1.4,0.8-1.9C448.2,404.1,448.9,403.9,449.7,403.9L449.7,403.9z"/>
	<polygon class="st0" points="457.3,404 458,404 458,409 457.4,409 454,405.1 454,409 453.3,409 453.3,404 453.9,404 457.3,407.9 
		457.3,404 	"/>
	<path class="st0" d="M460.3,406.9l-0.6-0.3c-0.3-0.2-0.6-0.4-0.7-0.6c-0.1-0.2-0.2-0.4-0.2-0.7c0-0.4,0.1-0.7,0.4-1
		c0.3-0.2,0.6-0.4,1.1-0.4c0.4,0,0.8,0.1,1.2,0.4v0.8c-0.4-0.4-0.8-0.5-1.2-0.5c-0.2,0-0.4,0.1-0.6,0.2c-0.2,0.1-0.2,0.2-0.2,0.4
		c0,0.2,0.1,0.3,0.2,0.4c0.1,0.1,0.3,0.3,0.5,0.4l0.6,0.3c0.6,0.4,0.9,0.8,0.9,1.4c0,0.4-0.1,0.7-0.4,1c-0.3,0.3-0.6,0.4-1.1,0.4
		c-0.5,0-1-0.2-1.4-0.5v-0.9c0.4,0.5,0.8,0.7,1.4,0.7c0.2,0,0.4-0.1,0.6-0.2c0.2-0.1,0.2-0.3,0.2-0.5
		C461,407.5,460.8,407.2,460.3,406.9L460.3,406.9z"/>
	<polygon class="st0" points="462.1,404 466.3,404 466.3,404.6 464.5,404.6 464.5,409 463.8,409 463.8,404.6 462.1,404.6 462.1,404 
			"/>
	<path class="st0" d="M467.9,404.6h-0.2v1.6h0.3c0.4,0,0.6,0,0.8-0.1c0.1-0.1,0.2-0.2,0.3-0.3c0.1-0.1,0.1-0.3,0.1-0.4
		c0-0.2,0-0.3-0.1-0.4c-0.1-0.1-0.2-0.2-0.4-0.3S468.3,404.6,467.9,404.6L467.9,404.6z M467,409V404h1.3c0.5,0,0.9,0.1,1.2,0.4
		c0.3,0.3,0.5,0.6,0.5,1c0,0.3-0.1,0.6-0.2,0.8c-0.1,0.2-0.4,0.4-0.6,0.5c0.2,0.1,0.3,0.3,0.5,0.4c0.2,0.2,0.4,0.5,0.7,1
		c0.2,0.3,0.3,0.5,0.4,0.6l0.3,0.4H470l-0.2-0.3c0,0,0,0,0-0.1l-0.1-0.2l-0.2-0.4l-0.2-0.4c-0.1-0.2-0.3-0.4-0.4-0.5
		c-0.1-0.1-0.2-0.2-0.3-0.3c-0.1-0.1-0.3-0.1-0.5-0.1h-0.2v2.2H467L467,409z"/>
	<path class="st0" d="M474.8,404h0.7v2.9c0,0.4,0,0.7-0.1,0.9c-0.1,0.2-0.1,0.4-0.2,0.5c-0.1,0.1-0.2,0.2-0.3,0.4
		c-0.4,0.3-0.9,0.5-1.6,0.5c-0.7,0-1.2-0.2-1.6-0.5c-0.1-0.1-0.2-0.2-0.3-0.4c-0.1-0.1-0.2-0.3-0.2-0.5c-0.1-0.2-0.1-0.5-0.1-0.9
		V404h0.7v2.9c0,0.5,0.1,0.8,0.2,1c0.1,0.2,0.3,0.3,0.5,0.4c0.2,0.1,0.5,0.2,0.8,0.2c0.4,0,0.8-0.1,1.1-0.3c0.1-0.1,0.2-0.3,0.3-0.4
		c0.1-0.2,0.1-0.4,0.1-0.8V404L474.8,404z"/>
	<path class="st0" d="M480.9,407.9v0.8c-0.5,0.3-1.1,0.4-1.8,0.4c-0.6,0-1-0.1-1.4-0.3c-0.4-0.2-0.7-0.5-0.9-0.9
		c-0.2-0.4-0.3-0.8-0.3-1.3c0-0.7,0.3-1.4,0.8-1.9c0.5-0.5,1.2-0.8,1.9-0.8c0.5,0,1.1,0.1,1.8,0.4v0.8c-0.6-0.3-1.2-0.5-1.7-0.5
		c-0.6,0-1.1,0.2-1.4,0.5c-0.4,0.4-0.6,0.8-0.6,1.4c0,0.6,0.2,1,0.6,1.4c0.4,0.4,0.9,0.5,1.4,0.5
		C479.7,408.4,480.3,408.2,480.9,407.9L480.9,407.9z"/>
	<polygon class="st0" points="481.3,404 485.6,404 485.6,404.6 483.8,404.6 483.8,409 483.1,409 483.1,404.6 481.3,404.6 481.3,404 
			"/>
	<polygon class="st0" points="486.3,404 487,404 487,409 486.3,409 486.3,404 	"/>
	<path class="st0" d="M490.6,404.6c-0.6,0-1.1,0.2-1.4,0.5c-0.4,0.4-0.6,0.8-0.6,1.4c0,0.5,0.2,1,0.6,1.4c0.4,0.4,0.8,0.5,1.4,0.5
		c0.6,0,1-0.2,1.4-0.6c0.4-0.4,0.6-0.8,0.6-1.4c0-0.5-0.2-1-0.6-1.4C491.7,404.8,491.2,404.6,490.6,404.6L490.6,404.6z M490.6,403.9
		c0.8,0,1.4,0.2,2,0.7c0.5,0.5,0.8,1.1,0.8,1.9s-0.3,1.4-0.8,1.9c-0.5,0.5-1.2,0.7-2,0.7c-0.8,0-1.4-0.2-1.9-0.7
		c-0.5-0.5-0.8-1.1-0.8-1.8c0-0.8,0.3-1.4,0.8-1.9C489.2,404.1,489.8,403.9,490.6,403.9L490.6,403.9z"/>
	<polygon class="st0" points="498.3,404 499,404 499,409 498.3,409 494.9,405.1 494.9,409 494.3,409 494.3,404 494.8,404 
		498.3,407.9 498.3,404 	"/>
</g>
<g>
	<g>
		<g>
			<path class="st2" d="M127.3,484.4h-4.2c-4.6,0-7.5-3.4-8.8-10.2h-3.7c-2.1,0-3.9,0.8-5.4,2.3c-1.5,1.5-2.3,3.3-2.3,5.4
				c0,2.2,0.8,3.9,2.3,5.4c1.5,1.5,3.3,2.3,5.4,2.3h7.3v3.8h-7.7c-3.1,0-5.8-1.1-8-3.3c-2.2-2.2-3.3-4.8-3.3-7.9c0-2.9,1-5.5,3-7.7
				c2-2.2,4.5-3.4,7.4-3.6c-1.4-1.7-2.2-3.6-2.1-5.9c0-2.3,0.8-4.3,2.5-5.9c1.5-1.4,3.3-2.1,5.1-2.1c2.7,0,4.8,1,6.4,2.9l-2,2.2
				c-1.4-1.1-2.7-1.5-3.7-1.5c-2.9,0-4.4,1.7-4.3,4.9c0,3.3,2.3,5.3,5.1,5.3h4.8v3.5H120h-2.3c0.2,1.2,0.5,2.3,1,3.4
				c0.9,2.2,2.3,3.2,4.1,3.2h4.5v0.9v1.7V484.4z"/>
			<path class="st2" d="M150,484.4h-4.9c-1.7,0-3-0.7-4.2-2.1c-0.7-0.8-1.1-1.5-1.4-2.4c-1.1,2.7-3.9,4.3-6.9,4.5h-6.1v-3.5h5.1
				c1,0,1.9-0.3,2.8-0.8c1.2-0.8,1.7-1.8,1.7-3c0.1,0.9,0.1-3.4-0.1-12.8h3.8c0,3.5,0.1,7,0.1,10.5c0.1,1.9,0.6,3.5,1.7,4.6
				c0.9,1,2,1.5,3,1.5h5.3v0.9v1.7V484.4z M140.1,492.6H136v-4.3h4.1V492.6z"/>
			<path class="st2" d="M172.3,484.4h-4.9c-1.7,0-3-0.7-4.2-2.1c-0.7-0.8-1.1-1.5-1.4-2.4c-1.1,2.7-3.9,4.3-6.9,4.5h-7.2v-3.5h6.2
				c1.1,0,2-0.3,2.9-0.8c1.1-0.8,1.7-1.8,1.7-3c0.1,0.9,0.1-3.4-0.1-12.8h3.8c0,3.5,0.1,7,0.1,10.5c0.1,1.9,0.6,3.5,1.7,4.6
				c0.9,1,2,1.5,3,1.5h5.3v0.9v1.7V484.4z M162.1,459.8H158v-4.3h4.1V459.8z"/>
			<path class="st2" d="M184.8,477.3c0,4.4-2.7,7.2-7.5,7.2H170v-3.5h7.2c2.2,0,3.8-1.3,3.8-3.8c0,0.5-0.1-3.8-0.2-12.9h3.8
				C184.7,473,184.8,477.3,184.8,477.3 M175.9,492.6h-4.1v-4.3h4.1V492.6z M182.7,492.6h-4.1v-4.3h4.1V492.6z"/>
			<path class="st2" d="M209.9,479.3c0,4.8-1.3,8.7-3.9,11.9c-2.6,3.2-6.1,4.9-10.4,5.3l-1.7-3.5c2.8,0,5.2-0.8,7.2-2.4
				c1.9-1.5,3.4-3.6,4.2-6.2h-5c-2.5,0-4.6-0.9-6.2-2.9c-1.6-1.9-2.3-4.3-2.3-7c0.1-3.6,1.3-6.3,3.4-8.2c1.7-1.5,3.7-2.2,5.9-2.2
				c5.8,0,8.6,2.9,8.6,8.7V479.3z M206.1,480.9l-0.1-9.2c-0.1-3.3-1.5-4.9-4.3-4.9c-1.5,0-2.7,0.6-3.8,1.9c-1.2,1.4-1.8,3.3-1.8,5.6
				c0,3.7,2,6.6,5.3,6.6H206.1z"/>
			<path class="st2" d="M265.1,484.4h-4.9c-2.2,0-3.9-1.1-5.1-3.3c-0.1,4.3-1.5,7.9-4.4,10.8c-2.9,3-6.2,4.5-10.2,4.5
				c-4,0-7.5-1.5-10.4-4.6c-2.9-3-4.3-6.7-4.3-11.1c0-2.9-0.1-6.7-0.1-11.3h3.8c0,7.1,0,10.9,0.1,11.4c0,3.3,1.1,6,3.2,8.3
				c2.2,2.3,4.8,3.4,7.8,3.4s5.6-1.2,7.7-3.5c2.2-2.3,3.2-5.1,3.2-8.3l-0.3-32.7h3.8c0,6.1,0.1,15.3,0.2,27.4c0.1,1.7,0.6,3,1.7,4.1
				c0.9,0.9,2,1.3,3,1.3h5.3v0.9v1.7V484.4z"/>
			<path class="st2" d="M287.5,484.4h-4.9c-1.7,0-3-0.7-4.2-2.1c-0.7-0.8-1.1-1.5-1.4-2.4c-1.1,2.7-3.9,4.3-6.9,4.5h-7.2v-3.5h6.1
				c1.1,0,2-0.3,2.9-0.8c1.2-0.8,1.7-1.8,1.7-3c0.1,0.9,0.1-3.4-0.1-12.8h3.8c0,3.5,0.1,7,0.1,10.5c0.1,1.9,0.6,3.5,1.7,4.6
				c0.9,1,2,1.5,3,1.5h5.3v0.9v1.7V484.4z M274.6,492.6h-4.1v-4.3h4.1V492.6z M281.3,492.6h-4.1v-4.3h4.1V492.6z"/>
			<path class="st2" d="M309.8,484.4h-4.9c-1.7,0-3-0.7-4.2-2.1c-0.7-0.8-1.1-1.5-1.4-2.4c-1.1,2.7-3.9,4.3-6.9,4.5h-6.1v-3.5h5.1
				c1,0,1.9-0.3,2.8-0.8c1.2-0.8,1.7-1.8,1.7-3c0.1,0.9,0.1-3.4-0.1-12.8h3.8c0,3.5,0.1,7,0.1,10.5c0.1,1.9,0.6,3.5,1.7,4.6
				c0.9,1,2,1.5,3,1.5h5.3v0.9v1.7V484.4z M300,492.6h-4.1v-4.3h4.1V492.6z"/>
			<path class="st2" d="M342.1,484.4h-33.5l-0.1-3.5h23.7c-0.1-4.1-1.2-7.5-3.4-10.1c-2-2.4-4.4-3.6-7.2-3.6c-2.5,0-5,0.7-7.6,2.2
				l-1.6-3.3c3.3-1.5,6.3-2.3,9-2.3c4.8,0,8.5,1.8,11.1,5.4c2,2.9,3.3,6.9,3.8,11.8h5.9V484.4z M323.1,492.6H319v-4.3h4.1V492.6z"/>
			<path class="st2" d="M361.7,484.4h-4.9c-1.7,0-3-0.7-4.2-2.1c-0.7-0.8-1.1-1.5-1.4-2.4c-1.1,2.7-3.9,4.3-6.9,4.5h-3.6v-3.5h2.6
				c1,0,1.9-0.3,2.9-0.8c1.1-0.8,1.7-1.8,1.7-3c0-7.7-0.1-17.2-0.3-28.5h3.8c0.1,7.5,0.1,16.4,0.3,26.9c0.1,1.5,0.7,2.8,1.8,4
				c1,1,2,1.5,3,1.5h5.3V484.4z"/>
			<path class="st2" d="M371.7,477.3c0,4.4-2.7,7.2-7.5,7.2h-3.6v-3.5h3.5c2.2,0,3.8-1.3,3.8-3.8c0-3.5-0.1-8.2-0.1-14.2
				c-0.1-6.9-0.1-11.7-0.1-14.3h3.8c0,2.5,0.1,7.3,0.1,14.3C371.6,469,371.7,473.7,371.7,477.3"/>
			<path class="st2" d="M413.2,484.4h-5.6c-4,0-5.9-2-5.9-6.1h-8.1c-4.2,0-6.3-2.7-6.3-7.9c0-3.5,0.9-6.1,2.7-8
				c1.4-1.5,3.2-2.3,5.3-2.3c2.6,0,5,1.4,6.1,3.2h0.1v-2.7h3.8v17.5c0,1.8,0.8,2.8,2.3,2.8h5.6V484.4z M401.6,474.9l-0.1-8.2
				c-1.3-2.3-3-3.4-5.2-3.4c-1.4,0-2.5,0.6-3.4,1.8c-1.1,1.3-1.5,3.2-1.5,5.5c0,1.3,0.2,2.2,0.4,2.8c0.4,1,1.3,1.5,2.7,1.5H401.6z
				 M395.5,455.8h-4.1v-4.3h4.1V455.8z M402.3,455.8h-4.1v-4.3h4.1V455.8z"/>
			<path class="st2" d="M435.9,484.4h-4.9c-1.7,0-3-0.7-4.2-2.1c-0.7-0.8-1.1-1.5-1.4-2.4c-1.1,2.7-3.9,4.3-6.9,4.5h-7.2v-3.5h6.1
				c1.1,0,2-0.3,2.9-0.8c1.2-0.8,1.7-1.8,1.7-3c0.1,0.9,0.1-3.4-0.1-12.8h3.8c0,3.5,0.1,7,0.1,10.5c0.1,1.9,0.6,3.5,1.7,4.6
				c0.9,1,2,1.5,3,1.5h5.3v0.9v1.7V484.4z M422.9,492.6h-4.1v-4.3h4.1V492.6z M429.7,492.6h-4.1v-4.3h4.1V492.6z"/>
			<path class="st2" d="M472.9,480.9v3.5H434v-3.5h25.1c-0.2-4-1.4-7.2-3.7-9.6c-2.3-2.5-5-3.7-8.3-3.7c-2.5,0-5.1,0.8-7.6,2.3
				l-1.8-3.2c0.1-0.1,0.2-0.1,0.3-0.1l13.2-13.8l2.5,2.5l-9.6,9.3c1.3-0.2,2.5-0.3,3.6-0.3c7.8,0,12.6,4.2,14.5,12.7
				c0.3,1.3,0.5,2.6,0.6,4H472.9z"/>
			<path class="st2" d="M492.5,484.4h-4.9c-1.7,0-3-0.7-4.2-2.1c-0.7-0.8-1.1-1.5-1.4-2.4c-1.1,2.7-3.9,4.3-6.9,4.5h-3.6v-3.5h2.6
				c1,0,1.9-0.3,2.9-0.8c1.1-0.8,1.7-1.8,1.7-3c0-7.7-0.1-17.2-0.3-28.5h3.8c0.1,7.5,0.1,16.4,0.3,26.9c0.1,1.5,0.7,2.8,1.8,4
				c1,1,2,1.5,3,1.5h5.3V484.4z"/>
			<path class="st2" d="M521.4,484.4h-6.7c-1.5,3.4-4.2,5-8.2,5c-3.8,0-6.6-1.7-8.3-5h-7.1v-3.5h6c-0.1-0.6-0.1-1.2-0.1-1.8
				c0-6.4,3.4-10.3,9.2-10.3c2.9,0,5.3,1.1,7.1,3.2c1.7,2,2.5,4.4,2.5,7.1c0,0.6,0,1.2-0.1,1.8h5.6L521.4,484.4z M511.9,479.1
				c0-2.3-0.6-4.1-1.7-5.5c-1.1-1.2-2.3-1.7-3.8-1.7c-1.5,0-2.8,0.6-3.8,1.7c-1,1.3-1.5,3.2-1.5,5.5c0,2.3,0.6,4.1,1.8,5.5
				c1,1.2,2.3,1.8,3.8,1.8c1.5,0,2.8-0.6,3.7-1.8C511.4,483.2,511.9,481.4,511.9,479.1"/>
			<path class="st2" d="M531.6,477.3c0,4.4-2.7,7.2-7.5,7.2h-3.6v-3.5h3.5c2.2,0,3.8-1.3,3.8-3.8c0-3.5-0.1-8.2-0.1-14.2
				c-0.1-6.9-0.1-11.7-0.1-14.3h3.8c0,2.5,0.1,7.3,0.1,14.3C531.5,469,531.6,473.7,531.6,477.3"/>
			<polygon class="st2" points="542.8,484.4 539,484.4 538.8,448.7 542.6,448.7 			"/>
			<path class="st2" d="M584.4,484.4h-5.6c-4,0-5.9-2-5.9-6.1h-8.1c-4.2,0-6.3-2.7-6.3-7.9c0-3.5,0.9-6.1,2.7-8
				c1.4-1.5,3.2-2.3,5.3-2.3c2.6,0,5,1.4,6.1,3.2h0.1v-2.7h3.8v17.5c0,1.8,0.8,2.8,2.3,2.8h5.6V484.4z M572.8,474.9l-0.1-8.2
				c-1.3-2.3-3-3.4-5.2-3.4c-1.4,0-2.5,0.6-3.4,1.8c-1.1,1.3-1.5,3.2-1.5,5.5c0,1.3,0.2,2.2,0.4,2.8c0.4,1,1.3,1.5,2.7,1.5H572.8z
				 M566.7,455.8h-4.1v-4.3h4.1V455.8z M573.5,455.8h-4.1v-4.3h4.1V455.8z"/>
			<path class="st2" d="M607,484.4h-4.9c-1.7,0-3-0.7-4.2-2.1c-0.7-0.8-1.1-1.5-1.4-2.4c-1,2.7-3.9,4.3-6.9,4.5h-6.1v-3.5h5.1
				c1,0,1.9-0.3,2.8-0.8c1.2-0.8,1.7-1.8,1.7-3c0.1,0.9,0.1-3.4-0.1-12.8h3.8c0,3.5,0.1,7,0.1,10.5c0.1,1.9,0.6,3.5,1.7,4.6
				c0.9,1,2,1.5,3,1.5h5.3v0.9v1.7V484.4z M599.3,459.8h-10l1.1-1.9h2.9c-0.7-0.8-1.1-1.8-1.1-3c0-2.4,1.7-4.4,4.1-4.4
				c1.2,0,2.2,0.5,2.9,1.5l-0.9,1.3c-0.6-0.7-1.2-1-1.9-1c-1.3,0-2,0.9-1.9,2.9c0.1,1.6,1.2,2.7,2.7,2.7h2.2V459.8z"/>
			<path class="st2" d="M629.4,484.4h-4.9c-1.7,0-3-0.7-4.2-2.1c-0.7-0.8-1.1-1.5-1.4-2.4c-1,2.7-3.9,4.3-6.9,4.5h-7.2v-3.5h6.1
				c1.1,0,2-0.3,2.9-0.8c1.2-0.8,1.7-1.8,1.7-3c0.1,0.9,0.1-3.4-0.1-12.8h3.8c0,3.5,0.1,7,0.1,10.5c0.1,1.9,0.6,3.5,1.7,4.6
				c0.9,1,2,1.5,3,1.5h5.3v0.9v1.7V484.4z M616.4,492.6h-4.1v-4.3h4.1V492.6z M623.2,492.6h-4.1v-4.3h4.1V492.6z"/>
			<path class="st2" d="M668.3,484.4h-41.1l-0.1-3.5h9c-1.5-1.7-2.2-3.7-2.2-6.2c0-2.8,0.7-5.2,2.2-7.1c-1.4,0.4-2.8,0.9-3.9,1.6
				l-1.3-2.7c3.6-1.5,7.3-2.3,11.1-2.3c10,0,15.6,5.5,17.1,16.6h9.2V484.4z M647,474.3c0-2.2-0.5-3.9-1.5-5.1
				c-0.9-1.1-2-1.7-3.3-1.7c-1.3,0-2.4,0.6-3.2,1.7c-0.9,1.2-1.3,2.9-1.3,5.1c0,2.2,0.5,3.9,1.5,5.1c0.9,1.2,2,1.7,3.3,1.7
				C645.1,481.1,647,478.8,647,474.3 M655.3,480.9c-0.2-2.6-1-5-2.3-7.4c-1.2-2.3-2.5-3.7-4-4.4c1.1,1.6,1.7,3.5,1.7,5.6
				c0,2.5-0.6,4.6-1.7,6.2H655.3z"/>
			<path class="st2" d="M678.4,477.3c0,4.4-2.7,7.2-7.5,7.2h-3.6v-3.5h3.5c2.2,0,3.8-1.3,3.8-3.8c0-3.5-0.1-8.2-0.1-14.2
				c-0.1-6.9-0.1-11.7-0.1-14.3h3.8c0,2.5,0.1,7.3,0.1,14.3C678.3,469,678.4,473.7,678.4,477.3"/>
			<polygon class="st2" points="689.7,484.4 685.8,484.4 685.6,448.7 689.4,448.7 			"/>
			<path class="st2" d="M109.7,529.1c2.1,0.8,3.3,3,4,6.3c0.9,4.4,1.5,7.1,2,8.2h-3.1c-0.4-0.9-1-3.6-1.7-7.3
				c-0.8-4.2-2.3-6.1-5.5-6.1h-3.3v13.5h-2.9v-30c1.7-0.4,4-0.6,6.1-0.6c3.5,0,5.8,0.8,7.4,2.5c1.3,1.3,2,3.4,2,5.7
				c0,4-2.2,6.6-5,7.8V529.1z M105.6,527.7c3.8,0,6.2-2.4,6.2-6.1c0-4.5-3-5.9-6.3-5.9c-1.6,0-2.7,0.2-3.3,0.3v11.7H105.6z"/>
			<path class="st2" d="M136.2,532.6c0,8.1-4.8,11.5-9.1,11.5c-5,0-8.8-4.2-8.8-11.2c0-7.4,4.1-11.5,9.1-11.5
				C132.7,521.4,136.2,525.9,136.2,532.6 M127.3,524c-4.2,0-5.9,4.6-5.9,8.8c0,4.8,2.4,8.7,5.9,8.7c3.5,0,6-3.9,6-8.8
				C133.2,528.8,131.6,524,127.3,524"/>
			<path class="st2" d="M155.6,521.9l-5.2,15.4c-2.3,7.1-3.9,11.1-6.4,13.7c-1.6,1.7-3.2,2.4-3.9,2.6l-0.8-2.8
				c4.5-1.9,6.3-7.4,6.3-7.8c0-0.2-0.1,0.2-0.2-0.2l-6.9-20.8h3.2l4.2,13.2c0.5,1.5,0.9,3.2,1.2,4.6h0.1c0.3-1.3,0.8-3,1.2-4.6
				l3.9-13.1H155.6z"/>
			<path class="st2" d="M171.8,538.5c0,1.8,0,3.7,0.3,5.2h-2.7l-0.3-2.8H169c-1,1.7-3,3.3-5.7,3.3c-3.7,0-5.6-3-5.6-6.2
				c0-5.2,4-8.1,11.2-8c0-1.8,0-6-4.4-6c-1.7,0-3.4,0.5-4.7,1.6l-0.7-2.3c1.6-1.2,3.7-1.8,5.9-1.8c5.5,0,6.9,4.4,6.9,8.7V538.5z
				 M168.9,532.4c-3.7,0-8.2,0.6-8.2,5.2c0,2.8,1.6,4,3.3,4c2.9,0,4.9-2.5,4.9-5.1V532.4z"/>
			<rect x="177.8" y="511.7" class="st2" width="2.9" height="32"/>
			<path class="st2" d="M213.3,542.7c-1.2,0.7-3.7,1.4-6.8,1.4c-7,0-12.6-5.1-12.6-15.4c0-9.8,5.4-15.9,13.4-15.9
				c3.2,0,5.1,0.8,6,1.2l-0.8,2.8c-1.2-0.7-3-1.2-5.1-1.2c-6.1,0-10.3,4.6-10.3,13c0,8,3.8,12.7,10.2,12.7c2.1,0,4.1-0.5,5.4-1.2
				L213.3,542.7z"/>
			<path class="st2" d="M234.3,532.6c0,8.1-4.8,11.5-9.1,11.5c-5,0-8.8-4.2-8.8-11.2c0-7.4,4.1-11.5,9.1-11.5
				C230.7,521.4,234.3,525.9,234.3,532.6 M225.3,524c-4.2,0-5.9,4.6-5.9,8.8c0,4.8,2.4,8.7,5.9,8.7c3.5,0,6-3.9,6-8.8
				C231.2,528.8,229.6,524,225.3,524"/>
			<path class="st2" d="M265.4,543.7h-2.9v-12.6c0-4.2-1.4-7-4.3-7c-2.4,0-4.5,2.5-4.5,5.8v13.7h-2.9v-13.4c0-3.5-1.3-6.1-4.1-6.1
				c-2.5,0-4.8,2.8-4.8,6.2v13.3H239v-16.2c0-2.2-0.1-3.8-0.1-5.6h2.6l0.2,3.5h0.1c1.1-2.1,2.8-4,5.9-4c2.5,0,4.5,1.8,5.3,4.4h0.1
				c1.3-2.6,3.2-4.4,6.2-4.4c2.4,0,6.1,1.7,6.1,9.2V543.7z"/>
			<path class="st2" d="M297.7,543.7h-2.9v-12.6c0-4.2-1.4-7-4.3-7c-2.4,0-4.5,2.5-4.5,5.8v13.7h-2.9v-13.4c0-3.5-1.3-6.1-4.1-6.1
				c-2.5,0-4.8,2.8-4.8,6.2v13.3h-2.9v-16.2c0-2.2-0.1-3.8-0.1-5.6h2.6l0.2,3.5h0.1c1.1-2.1,2.8-4,5.9-4c2.5,0,4.5,1.8,5.3,4.4h0.1
				c1.3-2.6,3.2-4.4,6.2-4.4c2.4,0,6.1,1.7,6.1,9.2V543.7z"/>
			<path class="st2" d="M305.2,518.1c-1.1,0-1.9-1-1.9-2.3c0-1.2,0.8-2.2,2-2.2c1.2,0,1.9,1,1.9,2.2
				C307.2,517.2,306.3,518.1,305.2,518.1 M306.7,543.7h-2.9v-21.8h2.9V543.7z"/>
			<path class="st2" d="M321.9,525.2c-0.7-0.5-2-1.3-3.8-1.3c-2.1,0-3.3,1.5-3.3,3.2c0,1.9,1.1,2.8,3.6,4c3.1,1.4,4.9,3.3,4.9,6.5
				c0,3.9-2.6,6.4-6.9,6.4c-1.9,0-3.8-0.6-5.1-1.5l0.8-2.6c1,0.7,2.7,1.5,4.4,1.5c2.6,0,3.9-1.6,3.9-3.5c0-2-1-3.2-3.6-4.3
				c-3.3-1.5-4.9-3.5-4.9-6.2c0-3.4,2.4-6.2,6.3-6.2c1.8,0,3.4,0.6,4.4,1.3L321.9,525.2z"/>
			<path class="st2" d="M337.2,525.2c-0.7-0.5-2-1.3-3.8-1.3c-2.1,0-3.3,1.5-3.3,3.2c0,1.9,1.1,2.8,3.6,4c3.1,1.4,4.9,3.3,4.9,6.5
				c0,3.9-2.6,6.4-6.9,6.4c-1.9,0-3.8-0.6-5.1-1.5l0.8-2.6c1,0.7,2.7,1.5,4.4,1.5c2.6,0,3.9-1.6,3.9-3.5c0-2-1-3.2-3.6-4.3
				c-3.3-1.5-4.9-3.5-4.9-6.2c0-3.4,2.4-6.2,6.3-6.2c1.8,0,3.4,0.6,4.4,1.3L337.2,525.2z"/>
			<path class="st2" d="M345,518.1c-1.1,0-1.9-1-1.9-2.3c0-1.2,0.8-2.2,2-2.2c1.2,0,1.9,1,1.9,2.2
				C346.9,517.2,346.1,518.1,345,518.1 M346.5,543.7h-2.9v-21.8h2.9V543.7z"/>
			<path class="st2" d="M369.1,532.6c0,8.1-4.8,11.5-9.1,11.5c-5,0-8.8-4.2-8.8-11.2c0-7.4,4.1-11.5,9.1-11.5
				C365.6,521.4,369.1,525.9,369.1,532.6 M360.2,524c-4.2,0-5.9,4.6-5.9,8.8c0,4.8,2.4,8.7,5.9,8.7c3.5,0,6-3.9,6-8.8
				C366,528.8,364.4,524,360.2,524"/>
			<path class="st2" d="M389.3,543.7h-2.9v-12.9c0-3.6-1.1-6.7-4.5-6.7c-2.5,0-5.1,2.4-5.1,6.2v13.3h-2.9v-16.2
				c0-2.2-0.1-3.9-0.1-5.6h2.6l0.2,3.6h0.1c1-2.1,3.2-4,6.2-4c2.4,0,6.5,1.6,6.5,9V543.7z"/>
			<path class="st2" d="M404.2,521.9c0-2.7,0-6.3,2.1-8.7c1.3-1.4,2.9-2,4.5-2c1.2,0,2.2,0.3,2.9,0.6l-0.5,2.6
				c-0.5-0.2-1.2-0.5-2.2-0.5c-3.1,0-3.8,3.2-3.8,6.7v1.2h4.7v2.6h-4.7v19.2h-2.9v-19.2h-2.7v-2.6H404.2z"/>
			<path class="st2" d="M431.6,532.6c0,8.1-4.8,11.5-9.1,11.5c-5,0-8.8-4.2-8.8-11.2c0-7.4,4.1-11.5,9.1-11.5
				C428.1,521.4,431.6,525.9,431.6,532.6 M422.7,524c-4.2,0-5.9,4.6-5.9,8.8c0,4.8,2.4,8.7,5.9,8.7c3.5,0,6-3.9,6-8.8
				C428.6,528.8,426.9,524,422.7,524"/>
			<path class="st2" d="M445.2,524.7c-0.3,0-0.6-0.1-1.1-0.1c-3.2,0-4.8,3.6-4.8,7.2v11.8h-2.9v-15.3c0-2.3,0-4.4-0.1-6.5h2.6
				l0.1,4.2h0.1c0.9-2.7,2.9-4.7,5.3-4.7c0.3,0,0.6,0.1,0.9,0.1V524.7z"/>
			<path class="st2" d="M465.8,534c0,7.8-3.3,10.1-7.6,10.1c-1.2,0-2.6-0.3-3.4-0.6l0.4-2.7c0.7,0.3,1.6,0.5,2.7,0.5
				c3.1,0,4.9-1.6,4.9-7.6v-20.4h2.9V534z"/>
			<path class="st2" d="M486.9,537.9c0,2.2,0.1,4.1,0.2,5.8h-2.7l-0.1-3.4h-0.1c-0.9,1.7-2.9,3.9-6.2,3.9c-2.9,0-6.4-1.9-6.4-9.4
				v-12.9h2.9v12.3c0,4.2,1.1,7.2,4.3,7.2c2.3,0,5-2.1,5-5.9v-13.5h2.9V537.9z"/>
			<path class="st2" d="M496.1,525.4c1.2-2.5,3.4-4,6.4-4c4.6,0,7.8,4.4,7.8,11.1c0,7.9-4.3,11.6-8.3,11.6c-2.8,0-4.9-1.3-6.3-4.1
				h-0.1l-0.2,3.6h-2.6c0.1-1.4,0.1-3.6,0.1-5.4v-26.6h2.9L496.1,525.4L496.1,525.4z M496,535.2c0,3.2,2.2,6.3,5.4,6.3
				c3.8,0,5.9-3.6,5.9-8.8c0-4.6-2-8.5-5.8-8.5c-3.4,0-5.5,3.6-5.5,6.7V535.2z"/>
			<path class="st2" d="M527.7,538.5c0,1.8,0,3.7,0.3,5.2h-2.7l-0.3-2.8h-0.1c-1,1.7-3,3.3-5.7,3.3c-3.7,0-5.6-3-5.6-6.2
				c0-5.2,4.1-8.1,11.2-8c0-1.8,0-6-4.4-6c-1.7,0-3.4,0.5-4.7,1.6l-0.7-2.3c1.6-1.2,3.7-1.8,5.9-1.8c5.5,0,6.9,4.4,6.9,8.7V538.5z
				 M524.8,532.4c-3.7,0-8.2,0.6-8.2,5.2c0,2.8,1.6,4,3.3,4c2.9,0,4.9-2.5,4.9-5.1V532.4z"/>
			<path class="st2" d="M535.1,518.1c-1.1,0-1.9-1-1.9-2.3c0-1.2,0.8-2.2,2-2.2c1.2,0,1.9,1,1.9,2.2
				C537.1,517.2,536.3,518.1,535.1,518.1 M536.6,543.7h-3v-21.8h3V543.7z"/>
			<rect x="542.8" y="511.7" class="st2" width="2.9" height="32"/>
			<path class="st2" d="M579.9,527.3c-0.7,4.6-1.7,8.5-3.7,11.1c1.3,1.6,2.6,3.2,4.3,5.3H577c-0.7-0.9-1.5-1.8-2.6-3.1
				c-2.3,2.5-4.9,3.6-7.7,3.6c-5,0-7.9-3.9-7.9-8.5c0-4,2.1-6.9,5.2-8.9v-0.1c-1.4-2.1-2.2-4.3-2.2-6.5c0-3.7,2.3-7.3,6.5-7.3
				c3.1,0,5.6,2.4,5.6,6.3c0,3.2-1.6,5.7-5.9,8.1v0.2c2.2,3,4.9,6.5,6.8,9c1.2-2.3,2-5.4,2.5-9.1H579.9z M572.9,538.6
				c-1.7-2.2-4.7-6.1-7.6-10c-1.5,1.1-3.6,3.2-3.6,6.5c0,3.6,2.3,6.4,5.5,6.4C569.4,541.6,571.5,540.5,572.9,538.6 M564.4,519.8
				c0,2.3,0.9,4,2,5.7c2.8-1.8,4.6-3.6,4.6-6.2c0-2-0.9-4.1-3.2-4.1C565.5,515.1,564.4,517.5,564.4,519.8"/>
			<path class="st2" d="M610,513.2l-8.7,17.4v13.1h-2.9v-13l-8.2-17.5h3.4l3.8,8.5c1,2.3,1.9,4.2,2.7,6.4h0.1c0.7-2,1.7-4.1,2.7-6.5
				l3.9-8.5H610z"/>
			<path class="st2" d="M625.9,538.5c0,1.8,0,3.7,0.3,5.2h-2.7l-0.3-2.8h-0.1c-1,1.7-3,3.3-5.7,3.3c-3.7,0-5.6-3-5.6-6.2
				c0-5.2,4.1-8.1,11.2-8c0-1.8,0-6-4.4-6c-1.7,0-3.4,0.5-4.7,1.6l-0.7-2.3c1.6-1.2,3.7-1.8,5.9-1.8c5.5,0,6.9,4.4,6.9,8.7V538.5z
				 M623,532.4c-3.7,0-8.2,0.6-8.2,5.2c0,2.8,1.6,4,3.3,4c2.9,0,4.9-2.5,4.9-5.1V532.4z"/>
			<path class="st2" d="M647.4,543.7h-2.9v-12.9c0-3.6-1.1-6.7-4.5-6.7c-2.5,0-5.1,2.4-5.1,6.2v13.3h-2.9v-16.2
				c0-2.2-0.1-3.9-0.1-5.6h2.6l0.2,3.6h0.1c1-2.1,3.2-4,6.2-4c2.4,0,6.5,1.6,6.5,9V543.7z"/>
			<path class="st2" d="M656.4,525.4c1.2-2.5,3.4-4,6.4-4c4.6,0,7.8,4.4,7.8,11.1c0,7.9-4.3,11.6-8.3,11.6c-2.8,0-4.9-1.3-6.3-4.1
				H656l-0.2,3.6h-2.6c0.1-1.4,0.1-3.6,0.1-5.4v-26.6h2.9L656.4,525.4L656.4,525.4z M656.3,535.2c0,3.2,2.2,6.3,5.4,6.3
				c3.8,0,5.9-3.6,5.9-8.8c0-4.6-2-8.5-5.8-8.5c-3.4,0-5.5,3.6-5.5,6.7V535.2z"/>
			<path class="st2" d="M690.5,537.9c0,2.2,0.1,4.1,0.2,5.8H688l-0.1-3.4h-0.1c-0.9,1.7-2.9,3.9-6.2,3.9c-2.9,0-6.4-1.9-6.4-9.4
				v-12.9h2.9v12.3c0,4.2,1.1,7.2,4.3,7.2c2.3,0,5-2.1,5-5.9v-13.5h2.9V537.9z"/>
			<rect x="768.3" y="462.2" class="st3" width="4.6" height="5"/>
			<rect x="768.3" y="462.2" class="st4" width="4.6" height="5"/>
			<path class="st3" d="M814.1,413.8c-47.6,0-86.1,38.8-86.1,86.7c0,47.9,38.6,86.7,86.1,86.7c47.6,0,86.1-38.8,86.1-86.7
				C900.2,452.6,861.7,413.8,814.1,413.8"/>
			<path class="st5" d="M814.1,413.8c-47.6,0-86.1,38.8-86.1,86.7c0,47.9,38.6,86.7,86.1,86.7c47.6,0,86.1-38.8,86.1-86.7
				C900.2,452.6,861.7,413.8,814.1,413.8z"/>
			<path class="st6" d="M851.6,459.3c-0.1,0-0.2-0.1-0.3-0.1c-0.1,0-0.3,0.1-0.3,0.1l-0.5,0.5c0,0,0.3,0.2,0.9,0.8l0.9-0.9
				c0,0-0.1,0-0.2-0.1C851.9,459.5,851.7,459.3,851.6,459.3"/>
			<path class="st7" d="M851.6,459.3c-0.1,0-0.2-0.1-0.3-0.1c-0.1,0-0.3,0.1-0.3,0.1l-0.5,0.5c0,0,0.3,0.2,0.9,0.8l0.9-0.9
				c0,0-0.1,0-0.2-0.1C851.9,459.5,851.7,459.3,851.6,459.3z"/>
			<path class="st6" d="M840.7,452c-0.1,0-0.4-0.2-0.5-0.2c-0.1,0-0.3,0.1-0.3,0.1l-0.5,0.6c0.5,0.3,0.8,0.6,0.8,0.6l0.7-1
				C841,452.1,840.8,452.1,840.7,452"/>
			<path class="st7" d="M840.7,452c-0.1,0-0.4-0.2-0.5-0.2c-0.1,0-0.3,0.1-0.3,0.1l-0.5,0.6c0.5,0.3,0.8,0.6,0.8,0.6l0.7-1
				C841,452.1,840.8,452.1,840.7,452z"/>
			<path class="st6" d="M816.7,444.9c0,0-0.3,0-0.4,0.1c-0.1,0-0.3,0.1-0.3,0.2c0,0.1-0.1,0.3-0.1,0.3s0,0.3,0,0.4
				c0,0.1-0.1,0.2-0.1,0.2s0.6-0.1,1.2,0l0-1.3C817.1,444.7,816.9,444.9,816.7,444.9"/>
			<path class="st7" d="M816.7,444.9c0,0-0.3,0-0.4,0.1c-0.1,0-0.3,0.1-0.3,0.2c0,0.1-0.1,0.3-0.1,0.3s0,0.3,0,0.4
				c0,0.1-0.1,0.2-0.1,0.2s0.6-0.1,1.2,0l0-1.3C817.1,444.7,816.9,444.9,816.7,444.9z"/>
			<path class="st6" d="M860.1,470.4c-0.3,0-0.6,0.2-0.6,0.2l0.4,0.7l1-0.5C860.9,470.8,860.6,470.5,860.1,470.4"/>
			<path class="st7" d="M860.1,470.4c-0.3,0-0.6,0.2-0.6,0.2l0.4,0.7l1-0.5C860.9,470.8,860.6,470.5,860.1,470.4z"/>
			<path class="st6" d="M779.1,459c-0.1,0.1-0.2,0.3-0.2,0.5c0,0.4,0.5,0.8,0.5,0.8l0.6-0.8l-0.7-0.8
				C779.2,458.8,779.1,458.9,779.1,459"/>
			<path class="st7" d="M779.1,459c-0.1,0.1-0.2,0.3-0.2,0.5c0,0.4,0.5,0.8,0.5,0.8l0.6-0.8l-0.7-0.8
				C779.2,458.8,779.1,458.9,779.1,459z"/>
			<path class="st6" d="M861.6,472.1c0-0.3-0.2-0.6-0.2-0.6l-1,0.6l0.5,0.8C860.9,472.8,861.6,472.4,861.6,472.1"/>
			<path class="st7" d="M861.6,472.1c0-0.3-0.2-0.6-0.2-0.6l-1,0.6l0.5,0.8C860.9,472.8,861.6,472.4,861.6,472.1z"/>
			<path class="st8" d="M814.1,436.3c-35.2,0-63.8,28.8-63.8,64.3s28.6,64.3,63.8,64.3c35.2,0,63.8-28.8,63.8-64.3
				S849.3,436.3,814.1,436.3 M769.7,464.9h1.1v-1h-1.1V464.9z M771.9,476.3c-0.4,0.8-1.1,1.4-1.1,1.4s-1.2,0.8-2.1,0.2
				c-1.4-0.8-0.7-2.6-0.7-2.6s-0.7,0.1-1.2-0.2c-0.7-0.4-0.6-1.3-0.2-2.2c0.6-1.2,0.5-1.7,0.5-1.7s0.3,0.3,0.6,0.3
				c0.4,0.1,0.9,0.2,0.9,0.2l-0.8,1.7c0,0-0.2,0.5,0.1,0.7c0.4,0.3,0.7-0.1,0.7-0.1s0.7-1.3,1-1.8c0.3-0.4,1.1-1.8,1.1-1.8l-0.9-0.6
				c0,0-0.2-0.4-0.1-0.9c0.1-0.5-0.2-0.8-0.2-0.8l1.8,1.3c0,0,0.5-0.8,0.9-1.2c0.4-0.5,0.9-1.3,0.9-1.3l-0.5-0.4
				c0,0-0.1-0.5,0.1-0.8c0.2-0.3,0-0.5,0-0.5l1.3,0.9c0,0,0.6-0.7,1.2-1.4c0.4-0.5,1-1.2,1-1.2l-0.8-0.6c0,0-0.2-0.4,0-1
				c0.1-0.3-0.1-0.6-0.1-0.6l2.2,1.6c0,0,0.3,0.4,0.3,0.6c0,0.2-0.1,0.4-0.1,0.4s-3.5,4-5.2,6.6c-0.8,1.2-3.2,5.7-3.2,5.7
				s-0.2,0.6,0.2,0.8c0.5,0.3,0.8-0.3,0.8-0.3s0.5-0.6,0.9-1.5c0.3-0.6,0.5-1.5,0.5-1.5l1.2,0.9
				C772.8,474.4,772.3,475.6,771.9,476.3 M773.8,471.6h-1.1v1h1.1V471.6z M777.8,466.1h-1.1v1h1.1V466.1z M779.2,465.5h-1.1v-1h1.1
				V465.5z M782.2,462.7c-1.2,1.1-2.5-0.1-2.5-0.1s0.7-0.2,1.1-0.5c0.6-0.3,0.6-0.9,0.6-0.9l-0.7-0.7c0,0-0.4,0.4-0.7,0.7
				c-0.3,0.4-0.7,0.8-0.7,0.8s-1.6-1.1-1.6-2.6c0-0.7,0.2-1.4,0.7-1.9c0.3-0.3,0.6-0.8,0.6-0.8l3.7,4
				C782.6,460.7,783.3,461.7,782.2,462.7 M792.4,455.2h-1.1v1h1.1V455.2z M794.1,454.1H793v1h1.1V454.1z M799.1,452.5H798v-1h1.1
				V452.5z M803.4,451.3h-1.1v-1h1.1V451.3z M798.4,450.2c-5.4,1.7-9.7,4.8-9.7,4.8s1,2.2-0.8,3.4c-1.8,1.1-3-0.8-3-0.8
				s-0.6-1.4-0.3-1c0.4,0.5,1.4,1.1,2.4,0.5c1.1-0.6,0.5-1.7,0.5-1.7l-3.5-5.3c0,0-0.4-0.4,0.1-0.9c0.2-0.2,0.2-0.8,0.2-0.8l3.7,5.3
				l3.6-2l-0.5-1.1c0,0-0.1-0.4,0.2-0.7c0.3-0.2,0.4-0.7,0.4-0.7l1,2c0,0,1.8-0.9,2.5-1.2c0.8-0.4,2.5-1,2.5-1l-0.3-1
				c0,0-0.1-0.4,0.4-0.6c0.3-0.1,0.5-0.7,0.5-0.7l0.6,1.9l3.6-1.1c0,0-1-1.1-1.3-1.2c-0.3-0.2-0.7,0.4-0.7,0.4s-0.5-1.2-0.3-1.3
				c0.2-0.2,1.1-0.5,1.7,0c0.3,0.2,1.7,1.9,1.7,1.9l2.7-0.5l-0.8-5.2c0,0,0.1-0.4,0.5-0.5c0.2-0.1,0.5-0.5,0.5-0.5l1,6l1.6-0.2
				l-0.3-5.5c0,0,0.2-0.5,0.6-0.5c0.3,0,0.6-0.4,0.6-0.4l0.4,7.7C810.3,447.7,806.6,447.6,798.4,450.2 M856.1,460.6l0.6,0.1
				c0,0,0.1-0.1,0.3-0.2c0.2-0.2,0.3-0.5,0.5-0.6c0.2-0.1,0.4,0.3,0.7,0.5c0.3,0.2,0.5,0.4,0.5,0.4s0,0.3-0.1,0.6
				c-0.1,0.3-0.5,0.2-0.5,0.2L858,461c0,0-0.1-0.2-0.3-0.3c-0.2-0.2-0.5,0.3-0.5,0.3s0.1,0.4,0.2,0.5c0.2,0.1,0.6,0.3,0.6,0.3
				l-0.1,0.3l-0.6-0.1l-0.8-1H856L856.1,460.6z M854.4,457.7h1.1v-1h-1.1V457.7z M852.9,455.4h1.1v1h-1.1V455.4z M817.3,441.7h1.1
				v-1h-1.1V441.7z M815.1,440.7h1.1v1h-1.1V440.7z M820.4,449.4h-1.1v1h1.1V449.4z M822.4,449.8h-1.1v1h1.1V449.8z M840.1,456.5
				c-1.4-0.9-0.5-2.2-0.5-2.2s-2.2-2.4-10.5-4.8c-9-2.6-14.8-1.9-14.8-1.9s0.3-0.4,0.3-0.7c0-0.3,0-1.5,0-1.5s0.2-0.8,0.3-1
				c0.2-0.2,0.7-0.4,1.2-0.6c0.5-0.2,1.5-0.2,1.5-0.2c0.5-0.1,1-0.6,1-0.6l-0.2,3.3c0,0,1.1,0,1.9,0.1c0.7,0.1,1.5,0.2,1.5,0.2
				l0.2-1.3c0,0,0.3-0.1,0.7-0.2c0.4-0.1,0.8-0.4,0.8-0.4l-0.3,2.3c0,0,2.3,0.4,3.5,0.7c1.1,0.3,3.1,0.9,3.1,0.9l0.3-1.2
				c0,0-1.6-0.5-2.3-0.6c-0.6-0.1-2.9-0.6-2.9-0.6s-0.1-0.2-0.2-0.4c-0.1-0.2,0.4-0.5,0.4-0.5l5.4-1.2l0.3,0.3l-2.8,0.9l-0.4,0.2
				l0.2,0.3c0,0,3.6,0.9,3.8,1.1c0.2,0.2-0.1,0.6-0.1,0.6l-0.4,1.6c0,0,1.7,0.5,2.3,0.8c0.8,0.4,2,0.8,2,0.8l2.2-5
				c0,0,0.5-0.3,0.9-0.2c0.4,0.1,0.7-0.1,0.7-0.1l-2.7,5.8l1.7,1l0.8-1.1c0,0,0.5-0.2,1-0.3c0.4-0.1,1.3,0.5,1.6,0.6
				c0.4,0.2,1,0.2,1,0.2l-2.1,3.2c0,0-0.3,0.7,0.1,1c0.4,0.2,0.7-0.2,0.7-0.2l3.3-5.6c0,0,0.5-0.4,0.9-0.3c0.4,0.2,0.9-0.1,0.9-0.1
				l-4.1,6.8C842.4,456.1,841.5,457.5,840.1,456.5 M845.4,457.1c-0.2,0.2-0.2,0.5-0.2,0.5l-1.4-0.7l3.9-5.6c0,0,0.4-0.2,0.8-0.1
				c0.3,0.1,0.9,0,0.9,0l-3.7,5.2C845.8,456.5,845.6,456.9,845.4,457.1 M853.9,468.7h-1.1v-1h1.1V468.7z M855,470.3h-1.1v-1h1.1
				V470.3z M855.7,467.7c-4.3-5.9-7.2-7.8-7.2-7.8l1.7-1.7c0,0,0.4-0.3,0.8-0.3c0.4-0.1,0.7,0.1,1,0.2c0.3,0.2,1,0.9,1.4,1
				c0.4,0.2,0.6,0.2,0.6,0.2l-1.7,2l2,2.2l0.6-0.5c0,0,0.4-0.2,0.6,0.1c0.2,0.2,0.6,0.2,0.6,0.2l-1.2,1.1l2.3,2.9l1-0.9
				c0,0,0.5-0.1,0.7,0.2c0.2,0.3,0.6,0.2,0.6,0.2l-1.5,1.3l0.9,1.3c0,0,1.1-0.6,1.8-0.4c0.8,0.2,1.4,0.7,1.4,0.7l1.6-0.1l-1.1,1.2
				c0,0,0.4,0.6,0,1.5c-0.3,1-1.2,1.3-1.2,1.3l0.7,1.2l4.8-2.2c0,0,0.6,0.1,0.9,0.4c0.3,0.3,0.6,0.3,0.6,0.3l-7.1,3.5
				C861.4,477.1,859.8,473.2,855.7,467.7 M863.3,479.8c-0.1,0.2-0.2,0.4-0.2,0.4l-1.3-1.3l6.1-2.7c0,0,0.7,0,1,0.3
				c0.3,0.3,0.6,0.4,0.6,0.4l-5.7,2.6C863.8,479.3,863.4,479.6,863.3,479.8"/>
			<path class="st7" d="M814.1,436.3c-35.2,0-63.8,28.8-63.8,64.3s28.6,64.3,63.8,64.3c35.2,0,63.8-28.8,63.8-64.3
				S849.3,436.3,814.1,436.3z M769.7,464.9h1.1v-1h-1.1V464.9z M771.9,476.3c-0.4,0.8-1.1,1.4-1.1,1.4s-1.2,0.8-2.1,0.2
				c-1.4-0.8-0.7-2.6-0.7-2.6s-0.7,0.1-1.2-0.2c-0.7-0.4-0.6-1.3-0.2-2.2c0.6-1.2,0.5-1.7,0.5-1.7s0.3,0.3,0.6,0.3
				c0.4,0.1,0.9,0.2,0.9,0.2l-0.8,1.7c0,0-0.2,0.5,0.1,0.7c0.4,0.3,0.7-0.1,0.7-0.1s0.7-1.3,1-1.8c0.3-0.4,1.1-1.8,1.1-1.8l-0.9-0.6
				c0,0-0.2-0.4-0.1-0.9c0.1-0.5-0.2-0.8-0.2-0.8l1.8,1.3c0,0,0.5-0.8,0.9-1.2c0.4-0.5,0.9-1.3,0.9-1.3l-0.5-0.4
				c0,0-0.1-0.5,0.1-0.8c0.2-0.3,0-0.5,0-0.5l1.3,0.9c0,0,0.6-0.7,1.2-1.4c0.4-0.5,1-1.2,1-1.2l-0.8-0.6c0,0-0.2-0.4,0-1
				c0.1-0.3-0.1-0.6-0.1-0.6l2.2,1.6c0,0,0.3,0.4,0.3,0.6c0,0.2-0.1,0.4-0.1,0.4s-3.5,4-5.2,6.6c-0.8,1.2-3.2,5.7-3.2,5.7
				s-0.2,0.6,0.2,0.8c0.5,0.3,0.8-0.3,0.8-0.3s0.5-0.6,0.9-1.5c0.3-0.6,0.5-1.5,0.5-1.5l1.2,0.9
				C772.8,474.4,772.3,475.6,771.9,476.3z M773.8,471.6h-1.1v1h1.1V471.6z M777.8,466.1h-1.1v1h1.1V466.1z M779.2,465.5h-1.1v-1h1.1
				V465.5z M782.2,462.7c-1.2,1.1-2.5-0.1-2.5-0.1s0.7-0.2,1.1-0.5c0.6-0.3,0.6-0.9,0.6-0.9l-0.7-0.7c0,0-0.4,0.4-0.7,0.7
				c-0.3,0.4-0.7,0.8-0.7,0.8s-1.6-1.1-1.6-2.6c0-0.7,0.2-1.4,0.7-1.9c0.3-0.3,0.6-0.8,0.6-0.8l3.7,4
				C782.6,460.7,783.3,461.7,782.2,462.7z M792.4,455.2h-1.1v1h1.1V455.2z M794.1,454.1H793v1h1.1V454.1z M799.1,452.5H798v-1h1.1
				V452.5z M803.4,451.3h-1.1v-1h1.1V451.3z M798.4,450.2c-5.4,1.7-9.7,4.8-9.7,4.8s1,2.2-0.8,3.4c-1.8,1.1-3-0.8-3-0.8
				s-0.6-1.4-0.3-1c0.4,0.5,1.4,1.1,2.4,0.5c1.1-0.6,0.5-1.7,0.5-1.7l-3.5-5.3c0,0-0.4-0.4,0.1-0.9c0.2-0.2,0.2-0.8,0.2-0.8l3.7,5.3
				l3.6-2l-0.5-1.1c0,0-0.1-0.4,0.2-0.7c0.3-0.2,0.4-0.7,0.4-0.7l1,2c0,0,1.8-0.9,2.5-1.2c0.8-0.4,2.5-1,2.5-1l-0.3-1
				c0,0-0.1-0.4,0.4-0.6c0.3-0.1,0.5-0.7,0.5-0.7l0.6,1.9l3.6-1.1c0,0-1-1.1-1.3-1.2c-0.3-0.2-0.7,0.4-0.7,0.4s-0.5-1.2-0.3-1.3
				c0.2-0.2,1.1-0.5,1.7,0c0.3,0.2,1.7,1.9,1.7,1.9l2.7-0.5l-0.8-5.2c0,0,0.1-0.4,0.5-0.5c0.2-0.1,0.5-0.5,0.5-0.5l1,6l1.6-0.2
				l-0.3-5.5c0,0,0.2-0.5,0.6-0.5c0.3,0,0.6-0.4,0.6-0.4l0.4,7.7C810.3,447.7,806.6,447.6,798.4,450.2z M856.1,460.6l0.6,0.1
				c0,0,0.1-0.1,0.3-0.2c0.2-0.2,0.3-0.5,0.5-0.6c0.2-0.1,0.4,0.3,0.7,0.5c0.3,0.2,0.5,0.4,0.5,0.4s0,0.3-0.1,0.6
				c-0.1,0.3-0.5,0.2-0.5,0.2L858,461c0,0-0.1-0.2-0.3-0.3c-0.2-0.2-0.5,0.3-0.5,0.3s0.1,0.4,0.2,0.5c0.2,0.1,0.6,0.3,0.6,0.3
				l-0.1,0.3l-0.6-0.1l-0.8-1H856L856.1,460.6z M854.4,457.7h1.1v-1h-1.1V457.7z M852.9,455.4h1.1v1h-1.1V455.4z M817.3,441.7h1.1
				v-1h-1.1V441.7z M815.1,440.7h1.1v1h-1.1V440.7z M820.4,449.4h-1.1v1h1.1V449.4z M822.4,449.8h-1.1v1h1.1V449.8z M840.1,456.5
				c-1.4-0.9-0.5-2.2-0.5-2.2s-2.2-2.4-10.5-4.8c-9-2.6-14.8-1.9-14.8-1.9s0.3-0.4,0.3-0.7c0-0.3,0-1.5,0-1.5s0.2-0.8,0.3-1
				c0.2-0.2,0.7-0.4,1.2-0.6c0.5-0.2,1.5-0.2,1.5-0.2c0.5-0.1,1-0.6,1-0.6l-0.2,3.3c0,0,1.1,0,1.9,0.1c0.7,0.1,1.5,0.2,1.5,0.2
				l0.2-1.3c0,0,0.3-0.1,0.7-0.2c0.4-0.1,0.8-0.4,0.8-0.4l-0.3,2.3c0,0,2.3,0.4,3.5,0.7c1.1,0.3,3.1,0.9,3.1,0.9l0.3-1.2
				c0,0-1.6-0.5-2.3-0.6c-0.6-0.1-2.9-0.6-2.9-0.6s-0.1-0.2-0.2-0.4c-0.1-0.2,0.4-0.5,0.4-0.5l5.4-1.2l0.3,0.3l-2.8,0.9l-0.4,0.2
				l0.2,0.3c0,0,3.6,0.9,3.8,1.1c0.2,0.2-0.1,0.6-0.1,0.6l-0.4,1.6c0,0,1.7,0.5,2.3,0.8c0.8,0.4,2,0.8,2,0.8l2.2-5
				c0,0,0.5-0.3,0.9-0.2c0.4,0.1,0.7-0.1,0.7-0.1l-2.7,5.8l1.7,1l0.8-1.1c0,0,0.5-0.2,1-0.3c0.4-0.1,1.3,0.5,1.6,0.6
				c0.4,0.2,1,0.2,1,0.2l-2.1,3.2c0,0-0.3,0.7,0.1,1c0.4,0.2,0.7-0.2,0.7-0.2l3.3-5.6c0,0,0.5-0.4,0.9-0.3c0.4,0.2,0.9-0.1,0.9-0.1
				l-4.1,6.8C842.4,456.1,841.5,457.5,840.1,456.5z M845.4,457.1c-0.2,0.2-0.2,0.5-0.2,0.5l-1.4-0.7l3.9-5.6c0,0,0.4-0.2,0.8-0.1
				c0.3,0.1,0.9,0,0.9,0l-3.7,5.2C845.8,456.5,845.6,456.9,845.4,457.1z M853.9,468.7h-1.1v-1h1.1V468.7z M855,470.3h-1.1v-1h1.1
				V470.3z M855.7,467.7c-4.3-5.9-7.2-7.8-7.2-7.8l1.7-1.7c0,0,0.4-0.3,0.8-0.3c0.4-0.1,0.7,0.1,1,0.2c0.3,0.2,1,0.9,1.4,1
				c0.4,0.2,0.6,0.2,0.6,0.2l-1.7,2l2,2.2l0.6-0.5c0,0,0.4-0.2,0.6,0.1c0.2,0.2,0.6,0.2,0.6,0.2l-1.2,1.1l2.3,2.9l1-0.9
				c0,0,0.5-0.1,0.7,0.2c0.2,0.3,0.6,0.2,0.6,0.2l-1.5,1.3l0.9,1.3c0,0,1.1-0.6,1.8-0.4c0.8,0.2,1.4,0.7,1.4,0.7l1.6-0.1l-1.1,1.2
				c0,0,0.4,0.6,0,1.5c-0.3,1-1.2,1.3-1.2,1.3l0.7,1.2l4.8-2.2c0,0,0.6,0.1,0.9,0.4c0.3,0.3,0.6,0.3,0.6,0.3l-7.1,3.5
				C861.4,477.1,859.8,473.2,855.7,467.7z M863.3,479.8c-0.1,0.2-0.2,0.4-0.2,0.4l-1.3-1.3l6.1-2.7c0,0,0.7,0,1,0.3
				c0.3,0.3,0.6,0.4,0.6,0.4l-5.7,2.6C863.8,479.3,863.4,479.6,863.3,479.8z"/>
			<polygon class="st2" points="744,515 744.6,517 740.5,518.3 745.8,520.7 746.5,523.1 741.2,520.6 737.2,526.4 736.4,524 
				739.6,519.7 738.2,519 735.2,520 734.6,518 			"/>
			<polygon class="st2" points="738.8,530.2 738,528.3 747.2,524.4 748,526.3 			"/>
			<polygon class="st2" points="749.7,530 745.6,536.9 751.6,533.6 752.6,535.4 743.9,540.1 742.9,538.4 747.1,531.5 741,534.8 
				740,533 748.7,528.3 			"/>
			<path class="st2" d="M754.2,547.6c-0.8,0.7-3,1.9-5.4-0.1c-0.3-0.2-0.6-0.6-1-1.2c-1-1.5-0.8-2.5-0.7-3.1c0.4-3.2,4.7-6,7.8-4.2
				c0.4,0.2,0.9,0.6,1.4,1.3c0.6,0.8,1.3,1.9,1.1,3.3c-0.2,1.6-1,2.1-1.1,2.2l-1.1-1.5c0.7-1,0.5-2.1-0.1-2.9
				c-0.4-0.6-0.8-0.8-1.5-1.1c-1.6-0.4-3.7,1.1-4.2,2.2c-0.4,0.8-0.7,1.9-0.1,2.9c0.4,0.6,1.1,1.2,2.1,1.3c0.8,0.1,1.2-0.2,1.4-0.4
				l-1.3-1.8l1.4-1l2.4,3.2l-0.2,0.2L754.2,547.6z"/>
			<path class="st2" d="M760.3,548.2l1.3,1.3c0.5,0.5,0.8,1,0.6,1.9c-0.1,0.6-0.6,1.3-1.2,1.9c-0.6,0.6-1.3,1.1-1.8,1.2
				c-1,0.4-1.8,0.1-2.5-0.6l-1.1-1.2L760.3,548.2z M753,552.6l3.2,3.2c0.7,0.7,2,1.1,3.2,0.8c0.8-0.2,2-0.7,3.2-1.9
				c0.7-0.7,1.1-1.4,1.3-1.9c0.7-1.9,0.1-3.2-0.6-3.9l-3.2-3.3L753,552.6z"/>
			<path class="st2" d="M765.4,561.9c-0.5-0.4-0.9-0.9-1.1-1.6c-0.2-0.9,0.2-1.9,0.9-2.8c0.7-0.8,1.6-1.5,2.4-1.6
				c0.7-0.1,1.3,0.2,1.9,0.6c0.5,0.4,0.9,0.9,1.1,1.6c0.2,0.9-0.2,1.9-0.9,2.8c-0.7,0.9-1.6,1.5-2.4,1.6
				C766.6,562.6,765.9,562.3,765.4,561.9 M771.3,562.1c0.9-1.2,1.4-2.7,1.2-4.1c-0.1-1.2-0.9-2.2-1.9-3c-1-0.8-2.2-1.2-3.4-1
				c-1.3,0.2-2.7,1.1-3.6,2.3c-0.9,1.2-1.4,2.7-1.2,4.1c0.1,1.2,0.9,2.2,1.9,3c1,0.8,2.2,1.2,3.4,1
				C769.1,564.1,770.4,563.3,771.3,562.1"/>
			<polygon class="st2" points="774.2,569.4 776.4,561.5 772.6,568.6 770.8,567.6 775.5,558.8 778.2,560.2 776.2,567.9 781.4,562 
				784,563.4 779.3,572.2 777.5,571.2 781.3,564.1 776,570.4 			"/>
			<path class="st2" d="M791.3,575c-0.6-0.2-1.2-0.6-1.6-1.2c-0.5-0.8-0.5-1.9-0.2-2.9c0.3-1,0.9-2,1.7-2.4c0.6-0.3,1.3-0.3,1.9-0.1
				c0.6,0.2,1.2,0.6,1.6,1.2c0.5,0.8,0.5,1.9,0.2,2.9c-0.3,1-0.9,2-1.7,2.4C792.6,575.2,792,575.2,791.3,575 M796.9,573.1
				c0.4-1.4,0.3-3-0.3-4.2c-0.6-1.1-1.6-1.8-2.8-2.1c-1.2-0.4-2.5-0.3-3.5,0.3c-1.2,0.7-2.1,2-2.5,3.4c-0.4,1.4-0.3,3,0.3,4.2
				c0.6,1.1,1.6,1.8,2.8,2.1c1.2,0.4,2.5,0.3,3.5-0.3C795.5,575.8,796.4,574.5,796.9,573.1"/>
			<polygon class="st2" points="806.7,569.5 806.5,571.2 801.6,570.5 801.3,572.7 805.6,573.4 805.3,575.1 801,574.4 800.4,578.6 
				798.4,578.3 799.9,568.5 			"/>
			<path class="st2" d="M817.8,572.8c0-0.8-0.7-1.5-2.1-1.5c-1,0-1.7,0.4-1.8,1.2c0,0.7,0.2,0.8,0.7,1c0.2,0.2,2.1,0.5,2.5,0.5
				c0.5,0.1,1.7,0.3,2.4,0.9c1.2,1.2,0.7,3.6-0.5,4.4c-0.8,0.6-2,0.7-3.1,0.8c-0.5,0-1.7-0.1-2.5-0.6c-0.9-0.6-1.4-1.6-1.4-2.5
				l2-0.1c0,0.3,0.1,0.7,0.4,1c0.5,0.5,1.2,0.6,1.9,0.5c0.7,0,1.3-0.2,1.6-0.5c0.4-0.4,0.5-1.2,0-1.7c-0.7-0.7-2.6-0.6-3.9-1
				c-1.1-0.3-2-1.1-1.9-2.7c0.1-1.6,1.2-2.8,3.7-2.9c0.5,0,2.4,0,3.4,1.2c0.5,0.7,0.7,1.6,0.6,1.9L817.8,572.8z"/>
			<path class="st2" d="M825.8,571.3l1.9,3.6l-2.5,0.4L825.8,571.3z M826.6,568.7l-2.3,0.4l-1.8,10.4l2.1-0.3l0.4-2.1l3.6-0.6l1,1.9
				l2.1-0.3L826.6,568.7z"/>
			<path class="st2" d="M838.8,565.5l2,6.6c0.3,0.8,0.4,2.2-0.9,3.4c-0.5,0.4-1.2,0.8-1.8,1c-0.7,0.2-1.4,0.3-1.9,0.3
				c-1.8-0.4-2.6-1.4-2.9-2.3l-2-6.6l2-0.6l2,6.6c0.2,0.6,0.7,1.5,2.3,1c1.5-0.5,1.5-1.5,1.4-2.1l-2-6.6L838.8,565.5z"/>
			<path class="st2" d="M850,565.4c-0.4-0.9-1-1.5-1.3-1.8c-1.6-1.3-2.9-1.2-3.8-0.8l-4.2,2l4.2,9.1l4.1-1.9
				c0.9-0.4,1.7-1.5,1.8-2.8C850.9,568.3,850.8,566.9,850,565.4 M847.5,570.7l-1.5,0.7l-2.7-5.9l1.7-0.8c0.7-0.3,1.2-0.4,2,0.1
				c0.5,0.3,1,1,1.4,1.8c0.4,0.7,0.6,1.5,0.6,2.1C848.9,569.6,848.3,570.3,847.5,570.7"/>
			<polygon class="st2" points="856.3,567.9 854.5,568.9 849.5,560.3 851.3,559.3 			"/>
			<path class="st2" d="M860.7,555.5l3.4,2.2l-2,1.6L860.7,555.5z M860.1,552.9l-1.8,1.5l3.5,10l1.6-1.3l-0.7-2l2.9-2.3l1.8,1.1
				l1.6-1.3L860.1,552.9z"/>
			<path class="st2" d="M866.4,549.4l1.9-2c0.6-0.7,1.1-0.6,1.7-0.1c0.8,0.6,0.6,1.6,0.2,1.9l-1.9,2L866.4,549.4z M871,556.6
				l1.4-1.5l-2.9-2.7l1.6-1.8c0.5-0.5,1.1-0.6,1.6-0.2c0.5,0.5,1.1,1.1,1.5,1.4c0.2,0.2,0.5,0.4,0.9,0.4l1.5-1.6l-0.3-0.3
				c-0.2,0.1-0.5,0.1-0.9-0.3c-0.4-0.3-1.3-1.2-1.7-1.5c-0.7-0.5-1.4-0.2-1.8-0.1c0.2-0.8,0.2-1.3-0.2-2.1c-0.5-0.8-1.1-1.1-1.5-1.3
				c-1-0.5-2-0.1-2.7,0.6l-3.8,4L871,556.6z"/>
			<path class="st2" d="M874.6,540.6l3.9,1.2l-1.5,2.1L874.6,540.6z M873.4,538.2l-1.4,1.9l6.1,8.6l1.2-1.7l-1.2-1.7l2.1-3l2,0.6
				l1.2-1.7L873.4,538.2z"/>
			<path class="st2" d="M887.4,532.3c-0.3-1.1-0.9-1.7-1.4-1.9c-1.1-0.5-2.1-0.4-2.8-0.1c-0.2-0.9-0.8-1.5-1.4-1.8
				c-0.4-0.2-2.4-1-4,2l-1.9,3.7l8.8,4.6l2.1-4C887.2,534.2,887.6,533.2,887.4,532.3 M881.6,532.1l-1.1,2.1l-2-1.1l1.1-2.2
				c0.3-0.6,0.8-1,1.6-0.6C881.9,530.7,882,531.3,881.6,532.1 M885.4,534l-1.1,2.1L882,535l1.3-2.5c0.2-0.3,0.6-1,1.6-0.5
				C886.1,532.6,885.7,533.5,885.4,534"/>
			<polygon class="st2" points="890.3,527.1 889.5,529.1 880.3,525.3 881.1,523.4 			"/>
			<path class="st2" d="M893.3,518l0.6-2l-10.5,0.5l-0.7,2.3l8.6,6.1l0.6-2l-1.7-1.2l1-3.6L893.3,518z M888.7,520.5l-3.4-2.3
				l4.1-0.2L888.7,520.5z"/>
			<path class="st2" d="M843.2,489.5l29.1,0.1c0.7,3.6,1,7.3,1,11.1c0,32.9-26.5,59.7-59.2,59.7c-27.7,0-51-19.2-57.5-45.1h8.1
				v-31.4h3.3v27.4h4.8v-11.3h7.6v7.6v-11.8c0,0,5.3-3.5,9.2-3.5c4,0,9.4,3.5,9.4,3.5V507h-9h12.2v-30.5h2.6v30.3v-43.4h2.4V507
				h-4.7h10.1h-3.1v-28.5h2.4V507v-21.1h2.2v19.3v-14h8.7v12.9v-17.5h4.1l0,17.9h-12.6h16.3l0-24.4h2.3v24.4h-2.7l12.9,0.1
				l-0.1-15.7l0.1,15.8l7.3-0.1v6.1v4.4l0-10.4l-14.5-0.1V484h2.5v20.4v-33.1h2.1v33.2v-21h10.4v5.9L843.2,489.5z"/>
			<path class="st9" d="M843.2,489.5l29.1,0.1c0.7,3.6,1,7.3,1,11.1c0,32.9-26.5,59.7-59.2,59.7c-27.7,0-51-19.2-57.5-45.1h8.1
				v-31.4h3.3v27.4h4.8v-11.3h7.6v7.6v-11.8c0,0,5.3-3.5,9.2-3.5c4,0,9.4,3.5,9.4,3.5V507h-9h12.2v-30.5h2.6v30.3v-43.4h2.4V507
				h-4.7h10.1h-3.1v-28.5h2.4V507v-21.1h2.2v19.3v-14h8.7v12.9v-17.5h4.1l0,17.9h-12.6h16.3l0-24.4h2.3v24.4h-2.7l12.9,0.1
				l-0.1-15.7l0.1,15.8l7.3-0.1v6.1v4.4l0-10.4l-14.5-0.1V484h2.5v20.4v-33.1h2.1v33.2v-21h10.4v5.9L843.2,489.5z"/>
			<path class="st2" d="M850.3,511.1c0,0,5.3-5.2,12-5.2c6.3,0,10.4,4,10.4,4"/>
			<path class="st10" d="M850.3,511.1c0,0,5.3-5.2,12-5.2c6.3,0,10.4,4,10.4,4"/>
			<path class="st3" d="M814.4,531.6c1.3-0.1,2.6-0.6,2.6-0.6l-1.4-1.5v-1.7l-0.4-0.4v-5.3c0,0,0.5-0.2,0.8-0.7
				c0.3-0.5-0.4-2.8-0.4-2.8s0.9,1.1,1.1,1.5c0.2,0.3,0.1,1.1,0.1,1.1s0.6-1.3,0.6-2c0-0.7-1.1-1.6-1.1-1.6s1.4,0.9,1.8,1.2
				c0.3,0.3,0.8,1.4,0.8,1.4s0.1-1.6-0.1-2.2c-0.2-0.6-1.8-1.4-1.8-1.4s1.8,0.4,2.5,0.7c0.7,0.3,1.3,1.3,1.3,1.3s-0.2-1.3-0.6-1.7
				c-0.3-0.5-2.3-0.9-2.3-0.9s2-0.2,2.6-0.1c0.6,0.1,1.5,0.3,1.5,0.3s-1.3-1.3-2.1-1.5c-0.8-0.2-2.9-0.2-2.9-0.2s1.5-0.9,2.2-1.2
				c0.7-0.4,1.7,0,1.7,0s-1.6-0.7-2.2-0.7c-0.6,0-2.5,1.1-2.5,1.1s1.2-1.1,1.7-1.8c0.5-0.7,1.1-1,1.1-1s-1.3,0.2-1.9,0.6
				c-0.7,0.3-1.9,1.5-1.9,1.5s0.5-1.2,1-1.7c0.5-0.5,1-0.9,1-0.9s-1.3-0.1-1.8,0.3c-0.6,0.5-1.3,2.5-1.3,2.5s-0.7-2-1.3-2.5
				c-0.6-0.5-1.8-0.3-1.8-0.3s0.6,0.5,1,0.9c0.5,0.5,1,1.7,1,1.7s-1.2-1.1-1.9-1.5c-0.7-0.3-1.9-0.6-1.9-0.6s0.7,0.3,1.1,1
				c0.5,0.7,1.7,1.8,1.7,1.8s-1.9-1.1-2.5-1.1c-0.6,0-2.2,0.7-2.2,0.7s1-0.4,1.7,0c0.7,0.3,2.2,1.2,2.2,1.2s-2.1-0.1-2.9,0.2
				c-0.8,0.2-2.1,1.5-2.1,1.5s0.9-0.2,1.5-0.3c0.6-0.1,2.6,0.1,2.6,0.1s-2,0.4-2.3,0.9c-0.3,0.5-0.6,1.7-0.6,1.7s0.6-0.9,1.3-1.3
				c0.7-0.3,2.5-0.7,2.5-0.7s-1.6,0.8-1.8,1.4c-0.2,0.6-0.1,2.2-0.1,2.2s0.5-1,0.8-1.4c0.3-0.3,1.8-1.2,1.8-1.2s-1.1,0.9-1.1,1.6
				c0,0.7,0.6,2,0.6,2s-0.1-0.8,0.1-1.1c0.2-0.3,1.2-1.5,1.2-1.5s-0.8,2.3-0.5,2.8c0.3,0.5,0.8,0.7,0.8,0.7v5.3l-0.4,0.4v1.7
				l-1.4,1.5c0,0,1.4,0.4,2.6,0.6H814.4z"/>
			<path class="st3" d="M821.8,540.5c-0.5,0.4-0.8,0.6-1.6,0.1c-0.4-0.2-0.7-0.5-1-0.8c0.3-0.3,0.5-0.6,0.7-0.7
				c0.3-0.2,0.5,0.2,0.5,0.2s0.4-0.4-0.1-0.9c-0.3-0.3-1-0.2-1.2,0.1c-0.1,0.2-0.3,0.4-0.4,0.6c-0.1-0.1-1.7-1.8-3.7-3.8
				c1.1-1,2.7-2.4,4.9-3.4c1.6-0.7,5.4-2.1,5.4-2.1s-5.2-1.8-11.2,4.2c-0.1,0.1-0.1,0.1-0.2,0.2c-0.1-0.1-0.1-0.1-0.2-0.2
				c-6-5.9-11.2-4.2-11.2-4.2s3.8,1.4,5.4,2.1c2.2,1,3.8,2.4,4.9,3.4c-2,2-3.7,3.7-3.8,3.8c-0.2-0.3-0.3-0.5-0.4-0.6
				c-0.2-0.3-0.9-0.4-1.2-0.1c-0.5,0.4,0.1,0.9,0.1,0.9s0.3-0.4,0.5-0.2c0.2,0.1,0.4,0.4,0.7,0.7c-0.3,0.3-0.6,0.6-0.9,0.8
				c-0.8,0.5-1.1,0.2-1.6-0.1c-0.5-0.3-1.1-1-1.6-0.3c-0.5,0.7-0.7,0.8-0.1,1.3c0.6,0.5,1.3,0.8,2.2,0.9c1.1,0.1,2.3-0.7,3-1.3
				c0.4,0.4,1,0.9,1.3,0.8c0.8-0.1,0.3-1.1,0.3-1.1s-0.3,0.3-0.6,0.2c-0.1,0-0.4-0.3-0.6-0.5c0,0,2.7-2.7,3.9-3.9
				c1.2,1.2,3.8,3.9,3.8,3.9c-0.2,0.2-0.5,0.5-0.6,0.5c-0.3,0-0.6-0.2-0.6-0.2s-0.4,1,0.4,1.1c0.4,0,0.9-0.4,1.3-0.8
				c0.7,0.6,2,1.4,3,1.3c0.9-0.1,1.6-0.5,2.2-0.9c0.6-0.5,0.3-0.6-0.1-1.3C823,539.5,822.3,540.2,821.8,540.5"/>
		</g>
		<text transform="matrix(0.3618 0.9323 -0.9388 0.3643 763.0309 518.2611)" class="st3 st11 st12">R</text>
		<text transform="matrix(0.4227 0.9063 -0.9127 0.4257 764.8878 521.8738)" class="st3 st11 st12">o</text>
		<text transform="matrix(0.4774 0.8787 -0.8849 0.4808 766.0639 525.4341)" class="st3 st11 st13">y</text>
		<text transform="matrix(0.5269 0.85 -0.856 0.5306 767.4894 527.7246)" class="st3 st11 st13">a</text>
		<text transform="matrix(0.5633 0.8262 -0.8321 0.5673 768.9306 530.501)" class="st3 st11 st13">l</text>
		<text transform="matrix(0.5847 0.8112 -0.817 0.5889 769.9918 531.7482)" class="st3 st11 st12"> </text>
		<text transform="matrix(0.6228 0.7824 -0.7879 0.6272 771.0565 532.8476)" class="st3 st11 st12">C</text>
		<text transform="matrix(0.6738 0.7389 -0.7441 0.6786 773.4478 535.6794)" class="st3 st11 st12">o</text>
		<text transform="matrix(0.7336 0.6795 -0.6844 0.7388 775.377 538.0854)" class="st3 st11 st13">m</text>
		<text transform="matrix(0.7988 0.6016 -0.6058 0.8045 779.8655 541.8584)" class="st3 st11 st12">m</text>
		<text transform="matrix(0.8364 0.5481 -0.552 0.8423 784.029 545.6469)" class="st3 st11 st14">i</text>
		<text transform="matrix(0.8569 0.5155 -0.5191 0.863 785.6484 546.1995)" class="st3 st11 st13">s</text>
		<text transform="matrix(0.8809 0.4732 -0.4766 0.8872 787.451 547.8094)" class="st3 st11 st12">s</text>
		<text transform="matrix(0.8983 0.4393 -0.4424 0.9047 790.0891 549.0813)" class="st3 st11 st12">i</text>
		<text transform="matrix(0.9182 0.3961 -0.3989 0.9247 790.9353 549.3928)" class="st3 st11 st13">o</text>
		<text transform="matrix(0.9433 0.3321 -0.3344 0.9499 794.4639 551.0939)" class="st3 st11 st12">n</text>
		<text transform="matrix(0.9579 0.287 -0.289 0.9647 797.9926 552.1236)" class="st3 st11 st13"> </text>
		<text transform="matrix(0.9662 0.2576 -0.2594 0.9731 799.0949 552.6776)" class="st3 st11 st14">f</text>
		<text transform="matrix(0.978 0.2088 -0.2102 0.9849 801.1771 553.1324)" class="st3 st11 st14">o</text>
		<text transform="matrix(0.9878 0.156 -0.1571 0.9947 804.517 553.4594)" class="st3 st11 st12">r</text>
		<text transform="matrix(0.9923 0.1239 -0.1247 0.9993 806.7469 554.2127)" class="st3 st11 st12"> </text>
		<text transform="matrix(0.9961 8.826961e-02 -8.890463e-02 1.0031 808.257 554.3804)" class="st3 st11 st12">J</text>
		<text transform="matrix(0.9995 3.266985e-02 -3.292129e-02 1.0065 810.4991 554.7459)" class="st3 st11 st12">u</text>
		<text transform="matrix(0.9994 -3.506982e-02 3.531811e-02 1.0065 814.501 554.6961)" class="st3 st11 st12">b</text>
		<text transform="matrix(0.9951 -9.937016e-02 0.1001 1.0021 817.5717 554.2421)" class="st3 st11 st12">a</text>
		<text transform="matrix(0.9898 -0.1427 0.1437 0.9968 820.7863 554.1739)" class="st3 st11 st12">i</text>
		<text transform="matrix(0.9853 -0.1708 0.172 0.9923 822.2615 553.983)" class="st3 st11 st13">l</text>
		<text transform="matrix(0.9804 -0.1972 0.1986 0.9873 823.8993 553.9728)" class="st3 st11 st12"> </text>
		<text transform="matrix(0.9711 -0.2386 0.2403 0.978 825.3914 553.618)" class="st3 st11 st12">a</text>
		<text transform="matrix(0.9536 -0.3011 0.3032 0.9603 828.4194 552.5318)" class="st3 st11 st12">n</text>
		<text transform="matrix(0.9306 -0.3661 0.3687 0.9371 831.9778 551.632)" class="st3 st11 st12">d</text>
		<text transform="matrix(0.912 -0.4101 0.413 0.9185 835.0729 550.3483)" class="st3 st11 st12"> </text>
		<text transform="matrix(0.8946 -0.4468 0.4499 0.901 836.1812 549.954)" class="st3 st11 st13">Y</text>
		<text transform="matrix(0.8692 -0.4945 0.498 0.8753 838.8552 548.6299)" class="st3 st11 st12">a</text>
		<text transform="matrix(0.836 -0.5487 0.5526 0.8419 841.7413 546.8007)" class="st3 st11 st12">n</text>
		<text transform="matrix(0.7966 -0.6045 0.6088 0.8022 844.5303 545.0657)" class="st3 st11 st12">b</text>
		<text transform="matrix(0.7536 -0.6573 0.662 0.7589 847.7962 542.5809)" class="st3 st11 st13">u</text>
		<g>
			<path class="st2" d="M748.9,466.7c-1.7-0.8-3-1.5-3-1.5s0.2,0.9,0.2,1.7c0,0.3,0.3,0.6,0.3,0.6l2.1,1c0,0-1.2,2.3-1.6,3
				c-0.6,1.3-1.2,2.9-1.2,2.9l-4.9-1.8c0,0,0.5,1.1,0.2,2.1c-0.2,0.6-0.8,2.4,0.1,3.8c0.8,1.2,1.8,1.6,2.5,1.9
				c1.4,0.4,2.1,0.8,2.1,0.8s1.3-4.5,2.3-7c1.2-3.1,2.8-5.6,2.8-5.9C750.8,467.9,751,467.6,748.9,466.7 M744.4,478.4
				c0,0-0.2-0.1-0.7-0.3c-0.3-0.1-0.6-0.2-0.9-0.6c-0.3-0.5-0.1-1.1,0-1.3c0.1-0.3-0.1-0.7-0.1-0.7l2.3,0.9
				C744.7,477.2,744.4,478.4,744.4,478.4"/>
			<path class="st2" d="M816.1,426.4c-0.1-1.3,0-3.5,0-3.5s-0.5,0.7-1,0.9c-0.5,0.2-0.5,0.8-0.5,0.8l0,2.4l-4.7,0.2l-0.2-3.5
				c0,0-0.4,0.4-0.7,0.4c-0.6,0.1-0.7,0.6-0.7,0.6l0.2,2.5c0,0-3.4,0.4-3.7,0.4c-1.3,0.2-3.4,0.6-3.4,0.6l-0.9-5.1
				c0,0-0.7,1.2-1.6,1.4c-0.6,0.2-2.4,0.6-3,2.1c-0.6,1.3-0.4,2.4-0.2,3.1c0.4,1.4,0.3,2.1,0.3,2.1s5.7-1.8,10-2.4
				c4-0.6,9.2-0.5,9.6-0.6C816.2,428.6,816.2,428,816.1,426.4 M797.6,429.2c0,0,0-0.2-0.1-0.7c-0.1-0.3-0.1-0.6,0.1-1.1
				c0.2-0.5,0.9-0.6,1.1-0.7c0.3-0.1,0.6-0.4,0.6-0.4l0.4,2.4C798.7,428.8,797.6,429.2,797.6,429.2"/>
			<path class="st2" d="M890.1,469.7c-0.4-0.4-1.2-0.2-1.2-0.2l-10.2,5.1c0,0-1.2,0.7-1.6-0.2c-0.6-1.3,0.5-1.8,0.5-1.8l6.1-3.1
				c0,0-0.7-0.3-1.1-0.8c-0.5-0.7-1-1.4-1.5-2.2c-0.5-0.7-1.1-0.9-1.8-0.9c-0.7,0-2.3,0.9-2.3,0.9l-2.4-4.5l0.3-3.9l-3.3-0.3
				l-2.5-3.3l8.3-7.3l-2.5-0.3l-7.1,6.3l-2.6-2.9l1.9-1.7c0,0,0.6-0.6,0.6-1.1c0-0.5-0.5-1-0.5-1l-4.4-4l0.3-0.5l7.2,1l-10.9-3
				l-0.9,0.4l0,0.7c0,0,2.8,2.3,3.8,3.2c1.1,1,3.4,3.3,3.4,3.3l-1.6,1.3c0,0-2.4-2.1-4.4-3.8c-2.3-2-5.3-4.3-5.3-4.3l3.1-4.2
				c0,0-1.3,0.3-2.1-0.2c-0.5-0.3-2-1.4-3.5-0.8c-1.4,0.5-2,1.3-2.4,2c-0.8,1.3-1.3,1.7-1.3,1.7s3.7,1.4,12.4,9.4
				c8.2,7.6,9.1,10.1,9.1,10.1s-0.8,1.5,0.3,3.3c0.9,1.6,3.3,1.4,3.3,1.4s1.4,2.7,2.2,4.5c0.6,1.3,1.4,3,1.4,3s-2.9,1.8-1.3,4.3
				c1.1,1.7,2.5,1.2,3.5,1c0.9-0.3,3.2-1.6,4.6-2.3c1.5-0.7,7.8-3.6,7.8-3.6S890.6,470.1,890.1,469.7 M879.1,467.5
				c0.3,0,0.5,0,0.7,0.3c0.2,0.3,0.3,0.5,0.5,0.8c0.1,0.2,0.4,0.3,0.4,0.3l-2.1,1l-0.9-1.8C877.8,468.1,878.9,467.5,879.1,467.5
				 M851.2,438.6c0,0,0.2-0.2,0.5-0.6c0.1-0.2,0.4-0.5,0.9-0.6c0.5-0.2,1.1,0.3,1.2,0.4c0.3,0.2,0.7,0.1,0.7,0.1l-1.5,1.9
				C852.3,439.2,851.2,438.6,851.2,438.6 M873.1,461.4c0,0-1.1,0.7-1.8-0.1c-0.8-0.9,0.1-1.8,0.1-1.8l1.9,0.1L873.1,461.4z"/>
			<rect x="736.3" y="471.9" class="st2" width="1.6" height="1.6"/>
			<rect x="752.5" y="469.4" class="st2" width="1.6" height="1.6"/>
			<rect x="794.3" y="420.1" class="st2" width="1.6" height="1.6"/>
			<rect x="805.4" y="433.1" class="st2" width="1.6" height="1.6"/>
			<rect x="797.6" y="419.3" class="st2" width="1.6" height="1.6"/>
			<rect x="808.8" y="432.6" class="st2" width="1.6" height="1.6"/>
			<rect x="813.4" y="431.3" class="st2" width="1.6" height="1.6"/>
			<rect x="854.6" y="430" class="st2" width="1.6" height="1.6"/>
			<rect x="857.5" y="432.1" class="st2" width="1.6" height="1.6"/>
			<rect x="751.1" y="472.5" class="st2" width="1.6" height="1.6"/>
			<rect x="735.1" y="475.2" class="st2" width="1.6" height="1.6"/>
			<path class="st2" d="M747.3,460.9l2,1.4l2-3c0,0,0.6-1.1,1.2-0.6c0.3,0.2,1.4,0.9,1.4,0.9s-1,1.4-1.3,1.9c-0.3,0.5-1.9,3-1.9,3
				l2,1.1c0,0-0.1-0.5,0.2-0.8c0.1-0.2,0.9-1.4,1.6-2.5c0.8-1.2,1.4-2,1.4-2s0.3-0.4,0.4-1c0.1-0.5-1.9-1.7-1.9-1.7l-2-1.3
				c0,0-0.3-0.2-0.5-0.2c-0.4,0-0.8,0.4-0.8,0.4s-1.4,1.8-1.7,2.3c-0.3,0.5-1,1.6-1.3,1.8C747.6,460.9,747.3,460.9,747.3,460.9"/>
			<path class="st2" d="M783.7,434.7l-5.2-10.2c0,0-0.1,0.5-0.7,1.1c-0.4,0.3-0.3,0.9-0.3,0.9l4.5,8.7c0,0-1.3,0.6-1.7,0.9
				c-0.5,0.3-1.5,0.8-1.5,0.8l-2.1-3.4c0,0-0.1,0.6-0.4,1c-0.5,0.6-0.3,1.1-0.3,1.1l1.5,2.3l-1.5,1l-1.8-2.8c0,0-0.3,0.6-0.6,1
				c-0.6,0.7-0.3,0.9-0.3,0.9l1.1,1.6l-1.4,1l-1.4-2c0,0-0.2,1-0.5,1.3c-0.5,0.5-0.2,0.8-0.2,0.8l0.7,0.9c0,0-1.9,1.3-2.3,1.7
				c-0.8,0.6-2.7,2.2-2.7,2.2l-1.6-1.3c0,0,1.2-1.1,1.5-1.4c0.6-0.5,1.5-1.1,1.5-1.1s-0.6-0.5-1-0.9c-0.4-0.4-1-1.4-1-1.4
				s-0.1,0.5-0.2,0.9c-0.1,0.4-1,1.2-1.4,1.6c-0.6,0.6-1.5,1.4-1.5,1.4s-0.2,0.5-0.3,0.9c-0.1,0.5,0.3,0.8,0.3,0.8l2.3,1.8
				c0,0-1.4,1.1-2,1.8c-0.7,0.7-2.1,2.1-2.1,2.1l-3.6-3.6c0,0-0.1,0.6-0.5,1.6c-0.2,0.4-0.6,1.1-0.9,1.5c-0.2,0.3-0.4,1.2-0.3,1.8
				c0.2,0.6,0.2,1.1,0.6,1.6c0.4,0.5,2.4,2.6,2.4,2.6s0.9-1,1.3-1.4c0.4-0.4,1.4-1.4,1.4-1.4l1.1,0.8c0,0,0.5,0.3,0.4,0.5
				c-0.7,1.1-1.5,1.8-1.5,1.8l-1.1,1c0,0,1,0.8,1.6,0.7c0.6-0.1,1.6-0.7,2-1.2c0.4-0.4,0.9-1.3,0.8-1.9c-0.1-0.6,0-0.7-0.3-1.3
				c-0.1-0.3-1.8-1.7-1.8-1.7s4.6-4.4,8.7-7.4c6-4.3,12.6-7.8,12.6-7.8s0.3-0.1,0.4-0.5C784.3,435.6,783.7,434.7,783.7,434.7
				 M759.1,452.3c-0.3,0.4-0.7,0.7-0.7,0.7s-0.8-0.8-0.9-1c-0.1-0.2-0.1-0.2-0.1-0.5c-0.1-0.2,0-0.6,0.1-0.7
				c0.1-0.1,0.3-0.4,0.3-0.6c0.2-0.4,0.2-0.6,0.2-0.6l1.8,1.7C759.9,451.5,759.4,451.9,759.1,452.3"/>
			<path class="st2" d="M784,422c0,0,0.1,0.4-0.3,0.9c-0.6,0.6-0.6,1.2-0.6,1.2l4.6,10.9l1.5-0.7L784,422z"/>
			<path class="st2" d="M822.4,430.4c0,0,0.3,3.1-2.7,3c-2.1,0-2.1-2.7-2.1-2.7s0.9,0.8,1.9,0.7c1.1-0.1,1.1-0.7,1.1-0.7l0.2-3.3
				c0,0-0.1-0.8,1.1-1.1c0.8-0.2,1-0.7,1-0.7l-0.1,2.6c0,0,1.7,0.2,2.7,0.5c0.7,0.2,2.5,0.5,2.5,0.5v-2.4c0,0,0.3-0.6,0.6-1
				c0.3-0.3,1.6-0.4,1.6-0.4s1.6,0.3,2.3,0.5c0.6,0.2,2-0.2,2-0.2s-0.4,0.6-0.5,1.1c-0.2,0.6-0.3,1.8-0.3,1.8s-1.4-0.5-1.9-0.7
				c-0.5-0.2-1.9-0.4-1.9-0.4l-0.1,2c0,0,2.5,0.7,3.3,1c1.1,0.4,3.4,1.1,3.4,1.1l3-8.7c0,0,0.1-1.2,0.8-1.1c0.7,0.1,1.6-0.3,1.6-0.3
				l-4.3,11.8c0,0-0.3,0.5-0.6,0.6c-0.3,0.1-1.3-0.3-1.3-0.3s-4.7-1.6-6.6-2.1C826.4,431,822.4,430.4,822.4,430.4"/>
			<path class="st2" d="M847.3,424.1c0,0-0.7,0.4-1.3,0.4c-0.8-0.1-1,0.6-1,0.6l-4.8,10.8c0,0,0.7,0.2,1.1,0.2c0.4,0,1,0.3,1,0.3
				s-0.1-0.3,0-0.6c0.1-0.4,0.6-1.4,0.6-1.4L847.3,424.1z"/>
			<path class="st2" d="M893.9,476.4c0,0-0.6-0.1-1-0.6c-0.5-0.8-1.3-0.5-1.3-0.5l-10.9,4.4c0,0,0.4,0.7,0.5,1
				c0.2,0.3,0.5,1.3,0.5,1.3s0.2-0.3,0.5-0.5c0.3-0.3,0.8-0.6,0.8-0.6L893.9,476.4z"/>
			<rect x="769.8" y="463.9" class="st3" width="0.9" height="1"/>
			<rect x="769.8" y="463.9" class="st7" width="0.9" height="1"/>
			<rect x="772.9" y="471.6" class="st3" width="0.9" height="1"/>
			<rect x="772.9" y="471.6" class="st7" width="0.9" height="1"/>
			<rect x="776.9" y="466.2" class="st3" width="0.9" height="1"/>
			<rect x="776.9" y="466.2" class="st7" width="0.9" height="1"/>
			<rect x="791.5" y="455.2" class="st3" width="0.9" height="1"/>
			<rect x="791.5" y="455.2" class="st7" width="0.9" height="1"/>
			<rect x="793.2" y="454.1" class="st3" width="0.9" height="1"/>
			<rect x="793.2" y="454.1" class="st7" width="0.9" height="1"/>
			<rect x="819.3" y="449.4" class="st3" width="0.9" height="1"/>
			<rect x="819.3" y="449.4" class="st7" width="0.9" height="1"/>
			<rect x="821.5" y="449.8" class="st3" width="0.9" height="1"/>
			<rect x="821.5" y="449.8" class="st7" width="0.9" height="1"/>
			<rect x="854.4" y="456.7" class="st3" width="0.9" height="1"/>
			<rect x="854.4" y="456.7" class="st7" width="0.9" height="1"/>
			<rect x="817.4" y="440.7" class="st3" width="0.9" height="1"/>
			<rect x="817.4" y="440.7" class="st7" width="0.9" height="1"/>
		</g>
	</g>
</g>
</svg>
